<?xml version="1.0" standalone="no"?>
<!DOCTYPE svg PUBLIC "-//W3C//DTD SVG 20010904//EN"
 "http://www.w3.org/TR/2001/REC-SVG-20010904/DTD/svg10.dtd">
<svg version="1.0" xmlns="http://www.w3.org/2000/svg"
 width="700.000000pt" height="700.000000pt" viewBox="0 0 700.000000 700.000000"
 preserveAspectRatio="xMidYMid meet">
<metadata>
Created by potrace 1.11, written by Peter Selinger 2001-2013
</metadata>
<g transform="translate(0.000000,700.000000) scale(0.100000,-0.100000)"
fill="#000000" stroke="none">
<path d="M3295 6204 c-515 -92 -998 -524 -1390 -1244 -287 -526 -496 -1180
-537 -1677 -14 -171 -1 -274 51 -409 120 -310 498 -660 1076 -999 167 -98 511
-275 680 -350 61 -27 116 -53 123 -58 9 -7 12 -167 12 -738 l0 -729 190 0 190
0 2 732 3 732 95 41 c929 406 1556 866 1760 1290 79 163 101 304 81 515 -47
489 -256 1134 -531 1641 -398 732 -881 1164 -1404 1254 -109 18 -294 18 -401
-1z m420 -399 c85 -23 287 -124 283 -141 -5 -24 -503 -1123 -508 -1124 -3 0
-40 60 -82 133 -42 72 -177 309 -301 525 l-226 392 72 51 c120 84 254 146 377
174 83 19 300 13 385 -10z m763 -599 c201 -265 389 -618 532 -999 28 -72 46
-133 42 -137 -5 -3 -307 -233 -673 -511 -365 -278 -670 -509 -677 -513 -10 -6
-12 90 -10 496 l3 503 274 605 c151 333 290 639 309 680 l34 75 45 -50 c25
-27 80 -94 121 -149z m-1519 -532 l351 -612 -2 -337 -3 -337 -560 493 c-309
272 -582 512 -608 535 l-48 40 54 115 c64 135 177 340 254 459 85 130 195 272
203 263 4 -4 166 -283 359 -619z m-229 -1298 c305 -269 561 -495 568 -504 15
-20 18 -972 3 -972 -17 0 -252 114 -410 199 -403 217 -680 410 -887 615 -129
128 -205 238 -236 339 -18 61 -20 84 -14 179 11 189 62 441 142 704 20 66 38
122 41 127 2 4 57 -39 121 -96 64 -57 367 -323 672 -591z m2469 192 c35 -173
44 -248 45 -378 1 -113 -2 -131 -25 -186 -103 -245 -431 -533 -934 -821 -132
-76 -568 -293 -588 -293 -4 0 -7 146 -7 325 l0 325 24 21 c41 35 1451 1108
1457 1108 4 1 16 -45 28 -101z"/>
</g>
</svg>
