<?xml version="1.0" encoding="utf-8"?>
<!-- Generator: Adobe Illustrator 22.0.0, SVG Export Plug-In . SVG Version: 6.00 Build 0)  -->
<svg version="1.1" id="Layer_1" xmlns="http://www.w3.org/2000/svg" xmlns:xlink="http://www.w3.org/1999/xlink" x="0px" y="0px"
	 viewBox="0 0 76 52" style="enable-background:new 0 0 76 52;" xml:space="preserve">
<style type="text/css">
	.st0{fill:none;stroke:#FFFFFF;stroke-width:1.5;stroke-miterlimit:10;}
	.st1{fill-rule:evenodd;clip-rule:evenodd;fill:none;stroke:#FFFFFF;stroke-width:1.5;stroke-miterlimit:10;}
</style>
<path class="st0" d="M21.8,16.8C21.8,12.4,17.7,1,11.4,1S1,12.4,1,16.8s10.4,8.6,10.4,8.6S21.8,21.2,21.8,16.8z"/>
<line class="st1" x1="2.3" y1="10.6" x2="11.4" y2="20.7"/>
<line class="st1" x1="11.4" y1="15.7" x2="19.7" y2="8.7"/>
<line class="st1" x1="7.3" y1="2.6" x2="11.4" y2="10.1"/>
<polyline class="st1" points="68.7,2.7 64.6,10.1 64.6,21.2 64.6,43.3 64.6,43.3 56.9,43.3 56.9,51 19.1,51 19.1,43.3 11.4,43.3 
	11.4,21.2 11.4,10.1 15.5,2.7 "/>
<path class="st0" d="M75,16.8C75,12.4,70.9,1,64.6,1c-6.3,0-10.4,11.4-10.4,15.8s10.4,8.6,10.4,8.6S75,21.2,75,16.8z"/>
<line class="st1" x1="55.6" y1="10.6" x2="64.6" y2="20.7"/>
<line class="st1" x1="64.6" y1="16.8" x2="72.5" y2="7.9"/>
<line class="st1" x1="60.6" y1="2.6" x2="64.6" y2="10.1"/>
<polyline class="st1" points="38,51 38,32.3 38,21.2 33.9,13.8 "/>
<path class="st0" d="M27.6,27.9c0-4.4,4.1-15.8,10.4-15.8s10.4,11.4,10.4,15.8S38,36.4,38,36.4S27.6,32.3,27.6,27.9z"/>
<line class="st1" x1="47.1" y1="21.7" x2="38" y2="31.8"/>
<line class="st1" x1="38" y1="27.9" x2="29.4" y2="21.2"/>
<line class="st1" x1="42" y1="13.7" x2="38" y2="21.2"/>
</svg>
