<?xml version="1.0" encoding="utf-8"?>
<!-- Generator: Adobe Illustrator 22.0.0, SVG Export Plug-In . SVG Version: 6.00 Build 0)  -->
<svg version="1.1" id="Layer_1" xmlns="http://www.w3.org/2000/svg" xmlns:xlink="http://www.w3.org/1999/xlink" x="0px" y="0px"
	 viewBox="0 0 494.4 383.4" style="enable-background:new 0 0 494.4 383.4;" xml:space="preserve">
<style type="text/css">
	.st0{fill:none;stroke:#5F735C;stroke-miterlimit:10;}
	.st1{fill:#FFFFFF;stroke:#5F735C;stroke-miterlimit:10;}
	.st2{fill:none;}
	.st3{fill:none;stroke:#5F735C;stroke-miterlimit:10;stroke-dasharray:2.9456,2.9456;}
	.st4{fill:none;stroke:#5F735C;stroke-miterlimit:10;stroke-dasharray:3.0154,3.0154;}
	.st5{fill:none;stroke:#5F735C;stroke-miterlimit:10;stroke-dasharray:3.0666,3.0666;}
	.st6{fill:#5F735C;}
	.st7{fill-rule:evenodd;clip-rule:evenodd;fill:none;stroke:#5E725B;stroke-width:1.1724;stroke-miterlimit:10;}
	.st8{fill:none;stroke:#5E725B;stroke-width:1.1724;stroke-miterlimit:10;}
</style>
<g>
	<polyline class="st0" points="68.5,137.5 34.5,117.9 0.6,137.5 0.6,157.1 102.5,216.1 119.6,206.2 153.5,206.3 221.6,166.9 
		493.6,324 442.5,353.4 425.6,343.6 	"/>
</g>
<g>
	<g>
		<polygon class="st1" points="34.5,137.5 85.5,108.1 119.6,127.7 68.6,157.1 68.5,176.7 34.5,157.1 		"/>
		<polygon class="st1" points="153.6,147.3 119.6,127.7 68.6,157.1 68.5,176.7 102.5,196.4 153.5,167 		"/>
		<polygon class="st1" points="85.5,108.1 119.5,88.4 187.4,127.8 187.5,147.3 153.5,167 153.6,147.3 		"/>
		<g>
			<polyline class="st0" points="34.5,137.5 102.5,176.8 187.4,127.8 			"/>
			<line class="st0" x1="102.5" y1="196.4" x2="102.5" y2="176.8"/>
		</g>
	</g>
	<g>
		<polygon class="st1" points="34.5,117.9 85.5,88.5 119.6,108.1 68.6,137.5 68.5,157.1 34.5,137.5 		"/>
		<polygon class="st1" points="153.6,127.7 119.6,108.1 68.6,137.5 68.5,157.1 102.5,176.8 153.5,147.4 		"/>
		<polygon class="st1" points="85.5,88.5 119.5,68.8 187.4,108.2 187.5,127.7 153.5,147.4 153.6,127.7 		"/>
		<g>
			<polyline class="st0" points="34.5,117.9 102.5,157.2 187.4,108.2 			"/>
			<line class="st0" x1="102.5" y1="176.8" x2="102.5" y2="157.2"/>
		</g>
	</g>
	<g>
		<polygon class="st1" points="34.5,98.3 85.5,68.9 119.6,88.5 68.6,117.9 68.5,137.5 34.5,117.9 		"/>
		<polygon class="st1" points="153.6,108.1 119.6,88.5 68.6,117.9 68.5,137.5 102.5,157.2 153.5,127.8 		"/>
		<polygon class="st1" points="85.5,68.9 119.5,49.2 187.4,88.6 187.5,108.1 153.5,127.8 153.6,108.1 		"/>
		<g>
			<polyline class="st0" points="34.5,98.3 102.5,137.6 187.4,88.6 			"/>
			<line class="st0" x1="102.5" y1="157.2" x2="102.5" y2="137.6"/>
		</g>
	</g>
	<g>
		<line class="st0" x1="34.5" y1="98.3" x2="102.4" y2="137.4"/>
		<polygon class="st1" points="145,112.8 128.1,103 128.1,83.4 94,63.8 34.5,98.3 102.4,137.5 		"/>
		<polyline class="st0" points="51.5,108.1 51.5,88.4 85.5,108.1 85.5,127.7 		"/>
		<path class="st0" d="M85.5,108.1"/>
		<path class="st0" d="M128.1,83.4"/>
		<polygon class="st1" points="94,63.8 136.5,39.3 170.5,59 170.4,78.7 187.4,88.6 145,112.8 128.1,103 128.1,83.4 		"/>
		<line class="st0" x1="85.5" y1="108.1" x2="170.5" y2="59"/>
		<line class="st0" x1="85.5" y1="127.7" x2="170.4" y2="78.7"/>
	</g>
</g>
<g>
	<g>
		<polygon class="st1" points="289.6,324 340.6,294.6 374.6,314.2 323.6,343.6 323.5,363.2 289.6,343.6 		"/>
		<polygon class="st1" points="408.6,333.8 374.6,314.2 323.6,343.6 323.5,363.2 357.6,382.9 408.5,353.5 		"/>
		<polygon class="st1" points="340.6,294.6 374.5,274.9 442.4,314.3 442.6,333.8 408.5,353.5 408.6,333.8 		"/>
		<g>
			<polyline class="st0" points="289.6,324 357.6,363.3 442.4,314.3 			"/>
			<line class="st0" x1="357.6" y1="382.9" x2="357.6" y2="363.3"/>
		</g>
	</g>
	<g>
		<polygon class="st1" points="289.6,304.4 340.6,274.9 374.6,294.6 323.6,324 323.5,343.6 289.6,324 		"/>
		<polygon class="st1" points="408.6,314.2 374.6,294.6 323.6,324 323.5,343.6 357.6,363.3 408.5,333.9 		"/>
		<polygon class="st1" points="340.6,274.9 374.5,255.3 442.4,294.7 442.6,314.2 408.5,333.9 408.6,314.2 		"/>
		<g>
			<polyline class="st0" points="289.6,304.4 357.6,343.7 442.4,294.7 			"/>
			<line class="st0" x1="357.6" y1="363.3" x2="357.6" y2="343.7"/>
		</g>
	</g>
	<g>
		<polygon class="st1" points="289.6,284.8 340.6,255.4 374.6,275 323.6,304.4 323.5,324 289.6,304.4 		"/>
		<polygon class="st1" points="408.6,294.6 374.6,275 323.6,304.4 323.5,324 357.6,343.7 408.5,314.3 		"/>
		<polygon class="st1" points="340.6,255.4 374.5,235.7 442.4,275.1 442.6,294.6 408.5,314.3 408.6,294.6 		"/>
		<g>
			<polyline class="st0" points="289.6,284.8 357.6,324.1 442.4,275.1 			"/>
			<line class="st0" x1="357.6" y1="343.7" x2="357.6" y2="324.1"/>
		</g>
	</g>
	<g>
		<line class="st0" x1="289.6" y1="284.8" x2="357.4" y2="323.9"/>
		<polygon class="st1" points="400.1,299.3 383.1,289.5 383.1,269.9 349.1,250.3 289.6,284.8 357.5,324 		"/>
		<polyline class="st0" points="306.5,294.6 306.6,274.9 340.6,294.6 340.6,314.2 		"/>
		<path class="st0" d="M340.6,294.6"/>
		<path class="st0" d="M383.1,269.9"/>
		<polygon class="st1" points="349.1,250.3 391.6,225.8 425.6,245.5 425.4,265.2 442.4,275.1 400.1,299.3 383.1,289.5 383.1,269.9 
					"/>
		<line class="st0" x1="340.6" y1="294.6" x2="425.6" y2="245.5"/>
		<line class="st0" x1="340.6" y1="314.2" x2="425.4" y2="265.2"/>
	</g>
</g>
<g>
	<g>
		<g>
			<polygon class="st1" points="136.6,255.3 136.6,274.9 170.6,294.5 170.6,274.9 204.6,255.3 170.6,235.7 			"/>
			<polygon class="st1" points="204.6,216 170.6,235.7 238.6,274.9 238.6,294.5 272.6,274.9 272.6,255.3 			"/>
			<polygon class="st1" points="170.6,294.5 170.6,274.9 204.6,255.3 238.6,274.9 238.6,294.5 204.6,314.2 			"/>
		</g>
		<g>
			<polyline class="st0" points="136.6,255.3 204.6,294.5 272.6,255.3 			"/>
			<line class="st0" x1="204.6" y1="314.2" x2="204.6" y2="294.5"/>
		</g>
	</g>
	<g>
		<g>
			<polygon class="st1" points="136.6,235.6 136.6,255.3 170.6,274.9 170.6,255.3 204.6,235.7 170.6,216 			"/>
			<polygon class="st1" points="204.6,196.4 170.6,216 238.6,255.3 238.6,274.9 272.6,255.3 272.6,235.6 			"/>
			<polygon class="st1" points="170.6,274.9 170.6,255.3 204.6,235.7 238.6,255.3 238.6,274.9 204.6,294.5 			"/>
		</g>
		<g>
			<polyline class="st0" points="136.6,235.6 204.6,274.9 272.6,235.6 			"/>
			<line class="st0" x1="204.6" y1="294.5" x2="204.6" y2="274.9"/>
		</g>
	</g>
	<g>
		<g>
			<polygon class="st1" points="136.6,216 136.6,235.6 170.6,255.3 170.6,235.6 204.6,216 170.6,196.4 			"/>
			<polygon class="st1" points="204.6,176.7 170.6,196.4 238.6,235.6 238.6,255.3 272.6,235.6 272.6,216 			"/>
			<polygon class="st1" points="170.6,255.3 170.6,235.6 204.6,216 238.6,235.6 238.6,255.3 204.6,274.9 			"/>
		</g>
		<g>
			<polyline class="st0" points="136.6,216 204.6,255.3 272.6,216 			"/>
			<line class="st0" x1="204.6" y1="274.9" x2="204.6" y2="255.3"/>
		</g>
	</g>
	<g>
		<polygon class="st1" points="170.6,235.7 187.4,225.7 187.4,206.1 221.4,186.7 272.6,216 204.6,255.3 		"/>
		<polygon class="st1" points="136.6,216 153.5,206.3 153.5,186.5 187.4,166.9 221.4,186.7 187.4,206.1 187.4,225.7 170.6,235.7 		
			"/>
		<g>
			<polyline class="st0" points="255.3,226 255.3,206.1 221.4,225.8 			"/>
			<polyline class="st0" points="153.5,186.5 221.4,225.8 221.4,245.4 153.5,206.3 			"/>
		</g>
	</g>
</g>
<g>
	<line class="st2" x1="170.5" y1="59" x2="170.4" y2="0"/>
	<g>
		<line class="st0" x1="170.5" y1="59" x2="170.5" y2="57.5"/>
		<line class="st3" x1="170.5" y1="54.5" x2="170.4" y2="3"/>
		<line class="st0" x1="170.4" y1="1.5" x2="170.4" y2="0"/>
	</g>
</g>
<g>
	<line class="st2" x1="255.3" y1="206.1" x2="255.3" y2="49.3"/>
	<g>
		<line class="st0" x1="255.3" y1="206.1" x2="255.3" y2="204.6"/>
		<line class="st4" x1="255.3" y1="201.6" x2="255.3" y2="52.3"/>
		<line class="st0" x1="255.3" y1="50.8" x2="255.3" y2="49.3"/>
	</g>
</g>
<g>
	<line class="st2" x1="425.6" y1="245.5" x2="425.7" y2="147.4"/>
	<g>
		<line class="st0" x1="425.6" y1="245.5" x2="425.6" y2="244"/>
		<line class="st5" x1="425.6" y1="240.9" x2="425.7" y2="150.4"/>
		<line class="st0" x1="425.7" y1="148.9" x2="425.7" y2="147.4"/>
	</g>
</g>
<g>
	<path class="st6" d="M180.8,10.7c1.7-4.4,3-7.6,3.8-9.7c0.1-0.1,0.2-0.2,0.3-0.4s0.3-0.2,0.4-0.2c0,0,0,0,0.1,0c0,0,0,0,0.1,0
		l4,10.4c0.3,0.8,0.5,1.3,0.5,1.3c0.1,0.2,0.3,0.4,0.6,0.5s0.6,0.2,0.7,0.2c0,0.1,0.1,0.2,0.1,0.3s0,0.2,0,0.3
		c-1.3-0.1-2-0.1-2.1-0.1c-0.3,0-0.5,0-0.7,0s-0.5,0-0.8,0s-0.5,0-0.7,0c0-0.1-0.1-0.1-0.1-0.3s0-0.2,0.1-0.3c0.1,0,0.4,0,0.6-0.1
		s0.4-0.1,0.5-0.2c0.1-0.1,0.1-0.1,0.1-0.3s-0.1-0.6-0.3-1.2s-0.4-1.2-0.7-1.8L187,8.3c0-0.1-0.1-0.1-0.1-0.1c-0.2,0-0.8,0-1.9,0
		c-0.8,0-1.5,0-2.1,0.1l-0.1,0.1c-0.4,1-0.7,1.8-0.9,2.4c-0.2,0.5-0.3,1-0.3,1.4c0,0.1,0.1,0.2,0.2,0.3s0.3,0.1,0.4,0.2
		s0.3,0.1,0.4,0.1s0.2,0,0.3,0c0,0,0,0.1,0.1,0.3s0,0.2,0,0.3c-0.2,0-0.4,0-0.6,0s-0.4,0-0.6,0s-0.4,0-0.7,0s-0.5,0-0.7,0
		s-0.4,0-0.7,0s-0.5,0-0.7,0c0,0,0-0.1,0-0.3s0-0.2,0-0.3c0.2,0,0.4,0,0.6-0.1s0.4-0.2,0.5-0.3C180.2,12.2,180.5,11.6,180.8,10.7z
		 M184.7,2.8l-1.8,4.8c0,0.1,0,0.1,0,0.1c0.7,0,1.3,0,1.8,0s1,0,1.6-0.1l0,0c0,0,0,0,0-0.1l0,0L184.7,2.8z"/>
</g>
<g>
	<path class="st6" d="M268.3,50.6c0.4,0,0.7,0,1.1,0.1s0.7,0.2,1.1,0.3s0.7,0.3,0.9,0.5s0.5,0.5,0.6,0.8s0.2,0.7,0.2,1.2
		c0,0.7-0.2,1.3-0.7,1.8s-0.9,0.9-1.3,1c-0.1,0-0.1,0.1,0,0.1c0.3,0,0.5,0.1,0.9,0.2s0.6,0.4,0.9,0.6s0.6,0.6,0.8,1s0.3,0.8,0.3,1.3
		c0,1.2-0.4,2.2-1.3,2.9c-0.8,0.7-2.2,1-4.1,1.1h-4.5c0-0.1-0.1-0.1-0.1-0.3s0-0.2,0.1-0.3c0.2,0,0.5,0,0.8-0.1s0.5-0.1,0.5-0.2
		c0.1-0.2,0.1-0.7,0.1-1.4v-8.3c0-0.8,0-1.2-0.1-1.4c0-0.1-0.2-0.2-0.5-0.2s-0.6-0.1-0.8-0.1c0-0.1-0.1-0.1-0.1-0.3s0-0.2,0.1-0.3
		c1.3,0.1,2.1,0.1,2.3,0.1c0.2,0,0.6,0,1.2,0S267.9,50.6,268.3,50.6z M266.3,56.2h1.6c0.8,0,1.4-0.2,1.8-0.7s0.6-1,0.6-1.6
		c0-0.9-0.3-1.5-0.8-2s-1.3-0.7-2.2-0.7c-0.6,0-0.9,0.1-1,0.2c-0.1,0.2-0.1,0.7-0.1,1.5v3.3H266.3z M266.3,56.9v4.2
		c0,0.2,0,0.4,0,0.8s0.1,0.5,0.1,0.6c0.1,0.1,0.3,0.2,0.6,0.3s0.6,0.1,1,0.1c2.1,0,3.1-1,3.1-2.9c0-2-1.2-3-3.6-3L266.3,56.9
		L266.3,56.9z"/>
</g>
<g>
	<path class="st6" d="M440.1,147.8c1.5,0,2.9,0.1,4.1,0.4c0.3,1.8,0.4,2.8,0.4,2.9c0,0.1,0,0.1-0.1,0.2s-0.2,0.1-0.3,0.1
		s-0.2,0-0.2-0.1c-0.4-1.9-1.6-2.9-3.8-2.9c-0.9,0-1.8,0.3-2.5,0.9s-1.3,1.3-1.7,2.1c-0.4,0.9-0.6,1.8-0.6,2.7
		c0,0.6,0.1,1.2,0.2,1.8s0.3,1.1,0.6,1.7c0.3,0.5,0.6,1,1,1.4s0.9,0.7,1.4,0.9c0.6,0.2,1.2,0.4,1.8,0.4c1,0,1.9-0.3,2.6-0.9
		c0.6-0.5,1-1.3,1.2-2.3c0.2,0,0.4,0,0.6,0.2c0,0.2-0.1,0.8-0.2,1.5s-0.3,1.2-0.4,1.3c-1,0.6-2.4,0.9-4.2,0.9
		c-0.9,0-1.8-0.2-2.6-0.5s-1.5-0.8-2.1-1.4c-0.6-0.6-1-1.3-1.3-2s-0.5-1.6-0.5-2.5s0.2-1.8,0.5-2.6s0.8-1.5,1.4-2.1s1.3-1.1,2.1-1.5
		C438.3,148,439.2,147.8,440.1,147.8z"/>
</g>
<g>
	<polyline class="st7" points="17.5,245.4 17.5,220.3 17.5,201.7 11.8,192.6 	"/>
	<path class="st8" d="M3.5,210.7c0-5.9,5.5-21.3,14-21.3s14,15.3,14,21.3s-14,11.5-14,11.5S3.5,216.7,3.5,210.7z"/>
	<line class="st7" x1="30.3" y1="204.4" x2="17.5" y2="215.3"/>
	<line class="st7" x1="17.5" y1="209.9" x2="5.7" y2="201.4"/>
	<line class="st7" x1="22.9" y1="191.7" x2="17.5" y2="201.7"/>
</g>
<g>
	<polyline class="st7" points="68.5,275 68.5,249.9 68.5,231.3 62.8,222.2 	"/>
	<path class="st8" d="M54.5,240.3c0-5.9,5.5-21.3,14-21.3s14,15.3,14,21.3c0,5.9-14,11.5-14,11.5S54.5,246.2,54.5,240.3z"/>
	<line class="st7" x1="81.3" y1="233.9" x2="68.4" y2="244.9"/>
	<line class="st7" x1="68.5" y1="239.5" x2="56.6" y2="231"/>
	<line class="st7" x1="73.9" y1="221.2" x2="68.5" y2="231.3"/>
</g>
<g>
	<polyline class="st7" points="34.4,333.8 34.4,308.7 34.4,290 28.7,280.9 	"/>
	<path class="st8" d="M20.4,299.1c0-5.9,5.5-21.3,14-21.3s14,15.3,14,21.3c0,5.9-14,11.5-14,11.5S20.4,305,20.4,299.1z"/>
	<line class="st7" x1="47.2" y1="292.7" x2="34.4" y2="303.6"/>
	<line class="st7" x1="34.4" y1="298.3" x2="22.6" y2="289.8"/>
	<line class="st7" x1="39.8" y1="280" x2="34.4" y2="290"/>
</g>
<g>
	<polyline class="st7" points="102.5,343.8 102.5,318.7 102.5,300 96.8,290.9 	"/>
	<path class="st8" d="M88.5,309.1c0-5.9,5.5-21.3,14-21.3s14,15.3,14,21.3c0,5.9-14,11.5-14,11.5S88.5,315,88.5,309.1z"/>
	<line class="st7" x1="115.3" y1="302.7" x2="102.5" y2="313.6"/>
	<line class="st7" x1="102.5" y1="308.3" x2="90.7" y2="299.8"/>
	<line class="st7" x1="107.9" y1="290" x2="102.5" y2="300"/>
</g>
<g>
	<polyline class="st7" points="170.5,373.1 170.5,348 170.5,329.3 164.8,320.2 	"/>
	<path class="st8" d="M156.5,338.4c0-5.9,5.5-21.3,14-21.3s14,15.3,14,21.3c0,5.9-14,11.5-14,11.5S156.5,344.3,156.5,338.4z"/>
	<line class="st7" x1="183.3" y1="332" x2="170.5" y2="342.9"/>
	<line class="st7" x1="170.5" y1="337.6" x2="158.7" y2="329.1"/>
	<line class="st7" x1="175.9" y1="319.3" x2="170.5" y2="329.3"/>
</g>
<g>
	<polyline class="st7" points="255.3,363.4 255.3,338.2 255.3,319.6 249.6,310.5 	"/>
	<path class="st8" d="M241.3,328.7c0-5.9,5.5-21.3,14-21.3s14,15.3,14,21.3c0,5.9-14,11.5-14,11.5S241.3,334.6,241.3,328.7z"/>
	<line class="st7" x1="268.1" y1="322.3" x2="255.3" y2="333.2"/>
	<line class="st7" x1="255.3" y1="327.8" x2="243.5" y2="319.4"/>
	<line class="st7" x1="260.7" y1="309.6" x2="255.3" y2="319.6"/>
</g>
<g>
	<polyline class="st7" points="319.4,238.3 319.4,213.2 319.4,194.5 313.7,185.5 	"/>
	<path class="st8" d="M305.4,203.6c0-5.9,5.5-21.3,14-21.3c8.5,0,14,15.3,14,21.3s-14,11.5-14,11.5S305.4,209.5,305.4,203.6z"/>
	<line class="st7" x1="332.2" y1="197.2" x2="319.4" y2="208.1"/>
	<line class="st7" x1="319.4" y1="202.8" x2="307.6" y2="194.3"/>
	<line class="st7" x1="324.8" y1="184.5" x2="319.4" y2="194.5"/>
</g>
<g>
	<polyline class="st7" points="374.6,217.4 374.6,192.3 374.6,173.7 368.9,164.6 	"/>
	<path class="st8" d="M360.6,182.7c0-5.9,5.5-21.3,14-21.3s14,15.3,14,21.3s-14,11.5-14,11.5S360.6,188.7,360.6,182.7z"/>
	<line class="st7" x1="387.4" y1="176.4" x2="374.6" y2="187.3"/>
	<line class="st7" x1="374.6" y1="181.9" x2="362.8" y2="173.4"/>
	<line class="st7" x1="380" y1="163.7" x2="374.6" y2="173.7"/>
</g>
<g>
	<polyline class="st7" points="340.5,164.9 340.5,139.8 340.5,121.1 334.8,112 	"/>
	<path class="st8" d="M326.5,130.2c0-5.9,5.5-21.3,14-21.3c8.5,0,14,15.3,14,21.3s-14,11.5-14,11.5S326.5,136.1,326.5,130.2z"/>
	<line class="st7" x1="353.3" y1="123.8" x2="340.5" y2="134.7"/>
	<line class="st7" x1="340.5" y1="129.4" x2="328.6" y2="120.9"/>
	<line class="st7" x1="345.9" y1="111.1" x2="340.5" y2="121.1"/>
</g>
<g>
	<polyline class="st7" points="289.6,187.3 289.6,162.1 289.6,143.5 283.9,134.4 	"/>
	<path class="st8" d="M275.5,152.6c0-5.9,5.5-21.3,14-21.3c8.5,0,14,15.3,14,21.3c0,5.9-14,11.5-14,11.5S275.5,158.5,275.5,152.6z"
		/>
	<line class="st7" x1="302.4" y1="146.2" x2="289.5" y2="157.1"/>
	<line class="st7" x1="289.6" y1="151.8" x2="277.7" y2="143.3"/>
	<line class="st7" x1="295" y1="133.5" x2="289.6" y2="143.5"/>
</g>
<g>
	<polyline class="st7" points="221.4,147.4 221.4,122.3 221.4,103.6 215.7,94.5 	"/>
	<path class="st8" d="M207.4,112.7c0-5.9,5.5-21.3,14-21.3s14,15.3,14,21.3s-14,11.5-14,11.5S207.4,118.6,207.4,112.7z"/>
	<line class="st7" x1="234.2" y1="106.3" x2="221.4" y2="117.2"/>
	<line class="st7" x1="221.4" y1="111.9" x2="209.6" y2="103.4"/>
	<line class="st7" x1="226.8" y1="93.6" x2="221.4" y2="103.6"/>
</g>
</svg>
