<?xml version="1.0" encoding="utf-8"?>
<!-- Generator: Adobe Illustrator 22.0.0, SVG Export Plug-In . SVG Version: 6.00 Build 0)  -->
<svg version="1.1" id="Layer_1" xmlns="http://www.w3.org/2000/svg" xmlns:xlink="http://www.w3.org/1999/xlink" x="0px" y="0px"
	 viewBox="0 0 240 155" style="enable-background:new 0 0 240 155;" xml:space="preserve">
<style type="text/css">
	.st0{fill:#718166;}
	.st1{fill:none;stroke:#718166;stroke-width:1.9045;stroke-miterlimit:10;}
</style>
<g>
	<path class="st0" d="M0,145.9v-1.2c1.1-0.5,2.3-0.9,3.5-1v-25.5c-0.6-0.1-1.2-0.3-1.8-0.5s-1.2-0.4-1.8-0.6v-1.2h4.6
		c0.5,0,1.1,0,1.6,0s1-0.1,1.6-0.1c0.5,0,1.1-0.1,1.8-0.1c0.6,0,1.3,0,2.2,0c1.1,0,2.3,0.1,3.5,0.3c1.2,0.2,2.3,0.5,3.2,1.1
		c1,0.5,1.7,1.2,2.3,2.2c0.6,0.9,0.9,2.1,0.9,3.6c0,0.7-0.1,1.5-0.3,2.2c-0.2,0.7-0.6,1.4-1.1,2.1c-0.5,0.6-1.1,1.2-1.8,1.7
		c-0.7,0.5-1.6,0.8-2.5,1.1v0.2c0.9,0.1,1.7,0.4,2.6,0.7c0.8,0.3,1.6,0.8,2.3,1.4s1.2,1.3,1.6,2.2s0.6,1.9,0.6,3.1
		c0,1.5-0.3,2.9-1,4s-1.6,2-2.7,2.8c-1.1,0.7-2.4,1.2-3.8,1.6c-1.4,0.3-2.8,0.5-4.3,0.5c-1,0-2.1,0-3.4-0.1s-2.5-0.1-3.7-0.1H0
		V145.9z M9.6,129.4c0.5,0,1.1,0,1.7-0.1c0.7,0,1.2-0.1,1.7-0.2c1.3-0.5,2.4-1.2,3.2-2.2s1.3-2.2,1.3-3.6c0-1.9-0.6-3.3-1.7-4.3
		c-1.1-0.9-2.6-1.4-4.5-1.4c-0.9,0-1.6,0-2.3,0c-0.6,0-1.1,0.1-1.5,0.1v11.5h2.1V129.4z M11.5,143.9c1,0,2-0.2,2.9-0.5
		s1.7-0.8,2.3-1.3c0.6-0.6,1.2-1.2,1.5-2s0.6-1.6,0.6-2.6c0-1.1-0.2-2.1-0.7-2.9c-0.4-0.8-1-1.4-1.8-1.8c-0.8-0.4-1.6-0.8-2.6-0.9
		c-1-0.2-2-0.3-3.1-0.3H7.4v11.9c0.4,0.1,0.9,0.2,1.4,0.3C9.4,143.8,10.3,143.9,11.5,143.9z"/>
	<path class="st0" d="M43.5,140.2c0,0.6,0,1.2,0,1.6c0,0.5,0.1,0.9,0.1,1.5l3,0.4v0.9c-0.7,0.4-1.5,0.7-2.4,1s-1.7,0.5-2.5,0.6h-1.1
		c-0.3-0.7-0.5-1.4-0.5-2.2c-0.1-0.8-0.1-1.7-0.1-2.6h-0.2c-0.1,0.6-0.3,1.2-0.7,1.7c-0.3,0.6-0.8,1.1-1.3,1.6s-1.2,0.8-1.9,1.1
		s-1.5,0.4-2.5,0.4c-1.7,0-3.2-0.5-4.3-1.6c-1.1-1.1-1.7-2.5-1.7-4.2c0-1.3,0.3-2.4,0.8-3.2s1.3-1.5,2.3-2s2.3-0.8,3.8-1.1
		c1.5-0.2,3.3-0.4,5.3-0.5c0.1-1.2,0.2-2.3,0.1-3.3c0-1-0.2-1.8-0.5-2.5s-0.7-1.2-1.2-1.6s-1.2-0.6-2.1-0.6c-0.4,0-0.9,0-1.4,0.1
		c-0.5,0-1,0.2-1.5,0.4l-2,5.2h-1.1c-0.3-0.9-0.5-1.7-0.8-2.7c-0.2-0.9-0.4-1.8-0.4-2.7c1.1-0.7,2.3-1.2,3.6-1.5
		c1.3-0.4,2.8-0.6,4.5-0.6c1.5,0,2.6,0.2,3.5,0.6s1.5,1,2,1.6c0.5,0.7,0.8,1.4,0.9,2.2c0.1,0.8,0.2,1.6,0.2,2.4c0,1.7,0,3.4-0.1,5
		C43.6,137.2,43.5,138.8,43.5,140.2z M35.2,143.7c0.7,0,1.3-0.1,1.9-0.4c0.5-0.3,1-0.6,1.4-1s0.7-0.8,0.9-1.2s0.4-0.8,0.5-1.1v-4.5
		c-1.7,0-3,0.1-4.1,0.3s-1.9,0.4-2.5,0.8c-0.6,0.4-1,0.8-1.2,1.4c-0.2,0.6-0.3,1.2-0.3,1.9c0,1.2,0.3,2.2,0.9,2.9
		C33.3,143.4,34.2,143.7,35.2,143.7z"/>
	<path class="st0" d="M50.9,137.3c0-1.8,0-3.6,0.1-5.3s0.1-3.5,0.1-5.2l-2.8-0.3v-1.1c0.9-0.3,1.9-0.6,2.8-0.9
		c1-0.3,1.9-0.5,2.8-0.6H55c0,2.2,0,4.3-0.1,6.4s-0.1,4.2-0.1,6.3c0,1.1,0.1,2.1,0.2,3c0.1,0.9,0.4,1.6,0.7,2.2
		c0.3,0.6,0.8,1.1,1.4,1.4c0.6,0.3,1.3,0.5,2.2,0.5c1.3,0,2.4-0.5,3.2-1.4c0.9-0.9,1.6-2.1,2-3.6v-11.8l-2.8-0.3v-1.1
		c0.9-0.3,1.8-0.6,2.8-0.9s1.9-0.5,2.8-0.6h1.1v19.6l2.8,0.3v0.9c-0.8,0.4-1.7,0.7-2.5,1s-1.7,0.5-2.6,0.6H65l-0.3-5.1h-0.2
		c-0.1,0.6-0.4,1.2-0.8,1.8c-0.4,0.6-0.8,1.2-1.4,1.7c-0.6,0.5-1.2,0.9-2,1.2c-0.7,0.3-1.5,0.5-2.4,0.5c-1.1,0-2.2-0.1-3-0.4
		s-1.6-0.8-2.2-1.4c-0.6-0.7-1.1-1.6-1.4-2.8C51.1,140.6,50.9,139.1,50.9,137.3z"/>
	<path class="st0" d="M97.1,145.9h-9.2v-1.1c0.3-0.2,0.6-0.4,1.1-0.5c0.4-0.2,0.9-0.4,1.5-0.5v-9.9c0-1.1-0.1-2.2-0.2-3.1
		c-0.1-0.9-0.3-1.7-0.6-2.3c-0.3-0.6-0.7-1.1-1.2-1.4s-1.2-0.5-2-0.5c-0.6,0-1.2,0.1-1.7,0.4s-1,0.6-1.4,1c-0.4,0.4-0.8,0.9-1.1,1.5
		c-0.3,0.5-0.5,1.1-0.7,1.7v12.6c0.5,0.1,0.9,0.3,1.3,0.5s0.8,0.4,1.2,0.6v1.1h-9.3v-1.1c0.4-0.2,0.8-0.4,1.3-0.6
		c0.5-0.2,1-0.3,1.5-0.5v-16.9l-2.8-0.3v-1.1c0.9-0.4,1.9-0.7,2.8-1c1-0.2,1.9-0.4,2.8-0.6h1.1v4.9l0,0c0.5-1.3,1.2-2.5,2.3-3.4
		c1.1-0.9,2.5-1.4,4.1-1.4c0.7,0,1.3,0.1,2,0.2c0.6,0.1,1.2,0.4,1.8,0.8c0.5,0.4,1,0.9,1.4,1.6s0.6,1.6,0.8,2.7
		c0.5-1.6,1.3-2.9,2.5-3.8c1.1-1,2.6-1.5,4.3-1.5c1.1,0,2,0.1,2.8,0.4s1.4,0.8,2,1.4c0.5,0.7,0.9,1.6,1.1,2.8
		c0.2,1.2,0.4,2.7,0.4,4.5v10.8c1,0.2,1.9,0.5,2.8,1v1.1h-9.2v-1.1c0.9-0.5,1.7-0.8,2.5-1V133c0-1,0-1.9-0.1-2.8
		c-0.1-0.8-0.3-1.5-0.6-2c-0.3-0.6-0.7-1-1.2-1.3s-1.2-0.5-2.1-0.5c-1.4,0-2.4,0.5-3.2,1.4c-0.8,0.9-1.3,2.2-1.7,3.6v12.2
		c1,0.3,1.9,0.6,2.8,1L97.1,145.9L97.1,145.9z"/>
	<path class="st0" d="M122.3,123.8c1.5,0,2.9,0.1,3.9,0.5c1.1,0.3,1.9,0.8,2.7,1.4c1.7-1.1,3.5-2,5.3-2.5c0.2,0.3,0.4,0.7,0.5,1.2
		s0.2,0.9,0.2,1.3l-0.6,1h-4.5c0.7,1,1.1,2.4,1.1,4.1c0,2.1-0.7,3.7-2.2,5c-1.4,1.3-3.6,1.9-6.3,1.9c-0.5,0-1,0-1.3,0
		s-0.7-0.1-1.2-0.1c-0.1,0.3-0.3,0.5-0.5,0.9c-0.2,0.3-0.3,0.6-0.3,1c0,0.6,0.3,1,1,1.4c0.7,0.3,1.5,0.6,2.5,0.9s2.1,0.5,3.2,0.8
		c1.2,0.3,2.2,0.6,3.2,1.1s1.8,1.1,2.5,1.8c0.7,0.8,1,1.7,1.1,2.9c0,1-0.2,2-0.7,2.8s-1.2,1.5-2.1,2.1c-0.9,0.6-2,1-3.2,1.3
		s-2.6,0.5-4.1,0.5c-3.1,0-5.5-0.5-7.1-1.6s-2.4-2.4-2.4-4c0-0.8,0.1-1.4,0.4-2c0.2-0.6,0.6-1.1,1.1-1.5s1-0.8,1.7-1.1
		s1.5-0.6,2.4-0.9c-0.6-0.3-1.2-0.7-1.6-1.2s-0.6-1.1-0.6-1.8s0.3-1.3,0.8-2c0.6-0.6,1.1-1.2,1.7-1.5c-1.6-0.4-2.9-1.2-3.8-2.5
		c-0.9-1.2-1.3-2.6-1.3-4.1c0-1,0.2-1.9,0.6-2.7s0.9-1.6,1.6-2.2s1.6-1.1,2.7-1.5C119.6,124,120.9,123.8,122.3,123.8z M128.6,149.3
		c0-0.9-0.3-1.6-0.9-2.2c-0.6-0.5-1.4-1-2.3-1.3s-1.9-0.6-3-0.9c-1.1-0.2-2.1-0.5-3-0.8c-1.1,0.7-1.8,1.4-2.2,2.1
		c-0.3,0.7-0.5,1.5-0.5,2.3c0,1.5,0.5,2.7,1.6,3.4c1.1,0.8,2.7,1.1,4.7,1.1c1.1,0,1.9-0.1,2.6-0.3s1.3-0.5,1.7-0.8
		c0.4-0.3,0.7-0.7,0.9-1.2C128.5,150.3,128.6,149.9,128.6,149.3z M117.6,130.8c0,0.7,0.1,1.3,0.2,2c0.2,0.6,0.4,1.2,0.8,1.6
		c0.4,0.5,0.8,0.8,1.4,1.1s1.3,0.4,2.2,0.4c1.7,0,2.9-0.5,3.6-1.5s1.1-2.2,1.1-3.6c0-1.5-0.4-2.8-1.1-3.7c-0.7-0.9-1.9-1.4-3.6-1.4
		s-3,0.4-3.7,1.3C117.9,127.9,117.6,129.2,117.6,130.8z"/>
	<path class="st0" d="M153.1,140.2c0,0.6,0,1.2,0,1.6c0,0.5,0.1,0.9,0.1,1.5l3,0.4v0.9c-0.7,0.4-1.5,0.7-2.4,1s-1.7,0.5-2.5,0.6
		h-1.1c-0.3-0.7-0.5-1.4-0.5-2.2c-0.1-0.8-0.1-1.7-0.1-2.6h-0.2c-0.1,0.6-0.3,1.2-0.7,1.7c-0.3,0.6-0.8,1.1-1.3,1.6
		s-1.2,0.8-1.9,1.1s-1.5,0.4-2.5,0.4c-1.7,0-3.2-0.5-4.3-1.6s-1.7-2.5-1.7-4.2c0-1.3,0.3-2.4,0.8-3.2s1.3-1.5,2.3-2s2.3-0.8,3.8-1.1
		c1.5-0.2,3.3-0.4,5.3-0.5c0.1-1.2,0.2-2.3,0.1-3.3c0-1-0.2-1.8-0.5-2.5s-0.7-1.2-1.2-1.6s-1.2-0.6-2.1-0.6c-0.4,0-0.9,0-1.4,0.1
		c-0.5,0-1,0.2-1.5,0.4l-2,5.2h-1.1c-0.3-0.9-0.5-1.7-0.8-2.7c-0.2-0.9-0.4-1.8-0.4-2.7c1.1-0.7,2.3-1.2,3.6-1.5
		c1.3-0.4,2.8-0.6,4.5-0.6c1.5,0,2.6,0.2,3.5,0.6s1.5,1,2,1.6c0.5,0.7,0.8,1.4,0.9,2.2c0.1,0.8,0.2,1.6,0.2,2.4c0,1.7,0,3.4-0.1,5
		C153.1,137.2,153.1,138.8,153.1,140.2z M144.8,143.7c0.7,0,1.3-0.1,1.9-0.4c0.5-0.3,1-0.6,1.4-1s0.7-0.8,0.9-1.2s0.4-0.8,0.5-1.1
		v-4.5c-1.7,0-3,0.1-4.1,0.3s-1.9,0.4-2.5,0.8c-0.6,0.4-1,0.8-1.2,1.4c-0.2,0.6-0.3,1.2-0.3,1.9c0,1.2,0.3,2.2,0.9,2.9
		C142.8,143.4,143.7,143.7,144.8,143.7z"/>
	<path class="st0" d="M169,127.6c-0.3,0.2-0.7,0.5-1.2,1.1c-0.5,0.5-0.9,1.3-1.3,2.3v12.8c0.6,0.1,1.1,0.2,1.7,0.3
		c0.6,0.2,1.1,0.4,1.7,0.7v1.1h-10.2v-1.1c0.5-0.3,1-0.5,1.5-0.6s0.9-0.3,1.4-0.4v-16.9l-2.8-0.3v-1.1c0.9-0.4,1.9-0.7,2.8-1
		c1-0.2,1.9-0.4,2.8-0.6h1.1v4.6h0.2c0.3-0.6,0.6-1.1,1.1-1.7s1-1.1,1.6-1.5c0.6-0.5,1.3-0.8,2-1.1c0.7-0.2,1.5-0.3,2.3-0.2
		c0.2,0.4,0.4,0.8,0.5,1.2c0.2,0.4,0.3,0.9,0.5,1.4v1.1H169V127.6z"/>
	<path class="st0" d="M177.7,125.4c1.1-0.7,2.2-1.2,3.4-1.5v-3.7c0.4-0.3,0.8-0.6,1.3-0.8c0.5-0.3,1-0.5,1.5-0.7h1.1v5.6h6.5v2.2
		H185V139c0,1.7,0.3,2.9,0.8,3.6c0.5,0.7,1.4,1.1,2.5,1.1c0.5,0,1.2,0,1.9-0.1c0.8-0.1,1.4-0.2,2-0.4l0.3,0.6
		c-0.2,0.3-0.6,0.5-1,0.8s-0.9,0.6-1.4,0.8c-0.5,0.3-1.1,0.5-1.7,0.6c-0.6,0.2-1.3,0.3-1.9,0.3c-1.7,0-3-0.5-3.9-1.5
		s-1.4-2.5-1.4-4.7v-13.6h-3.4v-1.1H177.7z"/>
	<path class="st0" d="M212.5,142.8c-0.2,0.5-0.6,0.9-1.1,1.4c-0.5,0.4-1,0.8-1.7,1.1c-0.6,0.3-1.3,0.6-2.1,0.8
		c-0.7,0.2-1.5,0.3-2.3,0.3c-1.7,0-3.2-0.3-4.5-0.8s-2.4-1.3-3.2-2.3c-0.9-1-1.5-2.2-2-3.5c-0.4-1.4-0.7-2.9-0.7-4.6
		c0-3.7,0.8-6.5,2.5-8.4s4.1-2.9,7.2-2.9c1,0,2,0.1,3,0.4s1.8,0.7,2.6,1.4c0.8,0.6,1.4,1.5,1.8,2.5c0.5,1,0.7,2.3,0.7,3.9
		c0,0.5,0,1-0.1,1.5c0,0.5-0.1,1-0.2,1.6H199c0,1.2,0.2,2.3,0.5,3.4c0.3,1,0.8,2,1.4,2.7c0.6,0.8,1.4,1.4,2.3,1.8
		c0.9,0.4,2,0.7,3.2,0.7c1,0,2-0.1,3.1-0.4c1-0.3,1.8-0.7,2.3-1.1L212.5,142.8z M204.6,125.7c-1.6,0-2.9,0.6-3.7,1.7
		c-0.9,1.1-1.4,3-1.5,5.8h9.5c0-0.3,0-0.5,0.1-0.8c0-0.2,0-0.5,0-0.7c0-1.8-0.3-3.3-1-4.4C207.1,126.3,206.1,125.7,204.6,125.7z"/>
	<path class="st0" d="M240,145.9h-9.2v-1.1c0.8-0.4,1.6-0.7,2.5-1v-10.2c0-2.2-0.3-3.9-0.9-5.2c-0.6-1.3-1.8-1.9-3.4-1.9
		c-0.7,0-1.4,0.1-2,0.4s-1.2,0.6-1.6,1.1c-0.5,0.4-0.9,0.9-1.2,1.5s-0.6,1.1-0.8,1.7v12.6c0.9,0.2,1.7,0.5,2.6,1v1.1h-9.3v-1.1
		c0.7-0.4,1.7-0.7,2.8-1v-16.9l-2.8-0.3v-1.1c0.7-0.3,1.6-0.6,2.6-0.9s2-0.5,3.1-0.7h1.1v4.8l0,0c0.6-1.3,1.5-2.5,2.6-3.4
		s2.5-1.4,4.1-1.4c1.1,0,2.2,0.1,3.1,0.4c0.9,0.3,1.7,0.8,2.3,1.4c0.6,0.7,1.1,1.6,1.4,2.8c0.3,1.2,0.5,2.6,0.5,4.4v10.9
		c1.1,0.2,2.1,0.5,2.8,1v1.1H240z"/>
</g>
<path class="st1" d="M89.7,30.9C89.7,22.5,82,1,70.1,1S50.4,22.5,50.4,30.9s19.7,16.2,19.7,16.2S89.7,39.2,89.7,30.9z"/>
<line class="st1" x1="52.9" y1="19.2" x2="70.1" y2="38.3"/>
<line class="st1" x1="70.1" y1="28.8" x2="85.7" y2="15.6"/>
<line class="st1" x1="62.4" y1="4.1" x2="70.1" y2="18.1"/>
<polyline class="st1" points="178.5,4.2 170.8,18.1 170.8,40 170.8,78 170.7,78 156.2,78 156.2,92.6 84.6,92.6 84.6,78 70.1,78 
	70.1,40 70.1,18.1 77.8,4.2 "/>
<path class="st1" d="M190.4,30.9c0-8.3-7.7-29.9-19.7-29.9C158.8,1,151,22.6,151,30.9s19.7,16.2,19.7,16.2S190.4,39.2,190.4,30.9z"
	/>
<line class="st1" x1="153.6" y1="19.2" x2="170.8" y2="38.3"/>
<line class="st1" x1="170.8" y1="30.9" x2="185.7" y2="14"/>
<line class="st1" x1="163.1" y1="4.1" x2="170.8" y2="18.1"/>
<polyline class="st1" points="120.4,92.6 120.4,61 120.4,39.1 112.7,25.1 "/>
<path class="st1" d="M100.8,51.8c0-8.3,7.7-29.9,19.7-29.9s19.7,21.6,19.7,29.9S120.4,68,120.4,68S100.8,60.2,100.8,51.8z"/>
<line class="st1" x1="137.5" y1="40.2" x2="120.4" y2="59.3"/>
<line class="st1" x1="120.4" y1="51.8" x2="104.2" y2="39.1"/>
<line class="st1" x1="128.1" y1="25.1" x2="120.4" y2="39.1"/>
</svg>
