<?xml version="1.0" encoding="utf-8"?>
<!-- Generator: Adobe Illustrator 22.0.0, SVG Export Plug-In . SVG Version: 6.00 Build 0)  -->
<svg version="1.1" id="Layer_1" xmlns="http://www.w3.org/2000/svg" xmlns:xlink="http://www.w3.org/1999/xlink" x="0px" y="0px"
	 viewBox="0 0 21 21" style="enable-background:new 0 0 21 21;" xml:space="preserve">
<style type="text/css">
	.st0{fill:#5F735C;}
	.st1{fill:none;stroke:#5F735C;stroke-width:0.5;stroke-linejoin:round;stroke-miterlimit:10;}
</style>
<path class="st0" d="M9.2,10.2h2.2L9.5,11L9.2,10.2z M6.3,1.6l3,8.6h2.2L6.3,1.6z"/>
<path class="st1" d="M10.5,20.5c5.5,0,10-4.5,10-10c0-5.5-4.5-10-10-10c-5.5,0-10,4.5-10,10C0.5,16,5,20.5,10.5,20.5"/>
<g>
	<g>
		<path class="st0" d="M10.6,17.8l-2.3-5.4L9,12.1l4.6,3l-1.8-4.2l0.7-0.3l2.3,5.4l-0.7,0.3l-4.6-3l1.8,4.2L10.6,17.8z"/>
	</g>
</g>
</svg>
