<?xml version="1.0" encoding="utf-8"?>
<!-- Generator: Adobe Illustrator 25.4.1, SVG Export Plug-In . SVG Version: 6.00 Build 0)  -->
<svg version="1.1" id="Ebene_1" xmlns="http://www.w3.org/2000/svg" xmlns:xlink="http://www.w3.org/1999/xlink" x="0px" y="0px"
	 viewBox="0 0 100 19.83" style="enable-background:new 0 0 100 19.83;" xml:space="preserve">
<style type="text/css">
	.st0{fill:#FFFFFF;}
</style>
<g>
	<polygon class="st0" points="11.73,1.44 11.73,18.24 9.22,18.24 9.22,5.12 9.17,5.12 6.56,18.24 5.17,18.24 2.56,5.12 2.51,5.12 
		2.51,18.24 0,18.24 0,1.44 3.79,1.44 5.84,11.26 5.89,11.26 7.94,1.44 	"/>
	<rect x="15.1" y="1.44" class="st0" width="2.89" height="16.81"/>
	<polygon class="st0" points="21.49,18.24 21.49,1.44 24.17,1.44 27.68,11.05 27.73,11.05 27.73,1.44 30.34,1.44 30.34,18.24 
		27.83,18.24 24.15,7.75 24.1,7.75 24.1,18.24 	"/>
	<polygon class="st0" points="33.78,18.24 33.78,1.44 41.5,1.44 41.5,3.95 36.66,3.95 36.66,8.28 40.39,8.28 40.39,10.79 
		36.66,10.79 36.66,15.73 41.83,15.73 41.83,18.24 	"/>
	<path class="st0" d="M47,8.98h1.02c1.56,0,2.14-0.58,2.14-2.58c0-2-0.58-2.58-2.14-2.58H47V8.98z M47,18.24h-2.89V1.44h4.05
		c3.23,0,4.89,1.37,4.89,4.96c0,2.7-1.05,3.79-2.03,4.24l2.45,7.61h-2.94l-2.05-6.96c-0.37,0.05-0.98,0.07-1.49,0.07V18.24z"/>
	<rect x="78.14" y="1.44" class="st0" width="2.88" height="16.81"/>
	<polygon class="st0" points="84.21,18.24 84.21,1.44 91.94,1.44 91.94,3.95 87.09,3.95 87.09,8.28 90.82,8.28 90.82,10.79 
		87.09,10.79 87.09,15.73 92.26,15.73 92.26,18.24 	"/>
	<path class="st0" d="M72.78,11.84l-0.21-0.15 M76.03,18.13l-1.37-9.05l-1.12,0.17l0,0l-7.93,1.2l0.34,2.25l5.23-0.79
		c-0.78,0.89-2.24,2.38-3.96,3.35c-2.58,1.46-5.41,1.25-6.97,0.18c-2.12-1.46-3.38-5.2,0.33-9.76c2.38-2.92,6.74-3.93,9.93-2.91
		l0.68-2.15c-3.34-1.2-7.92-0.61-11.1,1.74c-3.34,2.47-5.19,5.51-5.1,9.78c0.09,4.27,3.43,7.01,6.11,7.52
		c2.6,0.5,7.49,0.37,12.06-5.36l0.63,4.18L76.03,18.13z"/>
	<path class="st0" d="M97.15,6.89c-1.57,0-2.85-1.28-2.85-2.85s1.28-2.85,2.85-2.85c1.57,0,2.85,1.28,2.85,2.85
		S98.72,6.89,97.15,6.89 M97.15,1.76c-1.25,0-2.28,1.02-2.28,2.28s1.02,2.28,2.28,2.28s2.27-1.02,2.27-2.28S98.4,1.76,97.15,1.76"/>
	<path class="st0" d="M97.16,3.06c0.4,0,0.6,0.14,0.6,0.43c0,0.3-0.2,0.46-0.6,0.46h-0.52V3.06H97.16z M96.65,4.18h0.6l0.52,1.13
		h0.31l-0.55-1.19c0.34-0.11,0.51-0.32,0.51-0.65c0-0.21-0.08-0.37-0.22-0.49c-0.15-0.11-0.36-0.17-0.64-0.17h-0.83v2.49h0.28V4.18z
		"/>
	<path class="st0" d="M97.16,3.06c0.4,0,0.6,0.14,0.6,0.43c0,0.3-0.2,0.46-0.6,0.46h-0.52V3.06H97.16z M96.65,4.18h0.6l0.52,1.13
		h0.31l-0.55-1.19c0.34-0.11,0.51-0.32,0.51-0.65c0-0.21-0.08-0.37-0.22-0.49c-0.15-0.11-0.36-0.17-0.64-0.17h-0.83v2.49h0.28V4.18z
		"/>
</g>
</svg>
