<?xml version="1.0" encoding="utf-8"?>
<!-- Generator: Adobe Illustrator 25.4.1, SVG Export Plug-In . SVG Version: 6.00 Build 0)  -->
<svg version="1.1" xmlns="http://www.w3.org/2000/svg" xmlns:xlink="http://www.w3.org/1999/xlink" x="0px" y="0px"
	 viewBox="0 0 142 131.5" style="enable-background:new 0 0 142 131.5;" xml:space="preserve">
<style type="text/css">
	.st0{fill:#FFFFFF;stroke:#003278;stroke-width:0.3;stroke-linejoin:round;stroke-miterlimit:10;}
	.st1{fill:none;stroke:#003278;stroke-width:0.3;stroke-linejoin:round;stroke-miterlimit:10;}
	.st2{fill:none;stroke:#F08222;stroke-width:0.3;stroke-miterlimit:10;}
	.st3{fill:#B4C3D7;stroke:#003278;stroke-width:0.3;stroke-linejoin:round;stroke-miterlimit:10;}
	.st4{fill:#C6CCDC;stroke:#003278;stroke-width:0.3;stroke-linejoin:round;stroke-miterlimit:10;}
</style>
<g id="eg00">
	<g>
		<polygon class="st0" points="0.2,89 0.2,84.9 37.9,106.7 37.9,110.8 		"/>
		<polygon class="st0" points="0.2,98.5 37.9,120.4 37.9,110.8 0.2,89 		"/>
		<line class="st1" x1="6.4" y1="92.6" x2="6.4" y2="102.2"/>
		<line class="st1" x1="16.5" y1="98.5" x2="16.5" y2="108"/>
		<line class="st1" x1="26.6" y1="104.3" x2="26.6" y2="113.9"/>
		<line class="st1" x1="36.7" y1="110.1" x2="36.7" y2="119.7"/>
		<polygon class="st0" points="37.9,110.8 37.9,106.7 52.1,98.5 52.1,102.6 		"/>
		<polygon class="st0" points="37.9,120.4 37.9,110.8 52.1,102.6 52.1,112.2 		"/>
		<line class="st1" x1="39.2" y1="110.1" x2="39.2" y2="119.7"/>
		<polygon class="st0" points="85.2,117.7 85.2,121.8 141.8,89 141.8,84.9 		"/>
		<polygon class="st0" points="85.2,131.3 85.2,121.8 141.8,89 141.8,98.5 		"/>
		<polyline class="st1" points="140.6,89.7 140.6,97.9 135.7,100.7 135.7,92.5 		"/>
		<polyline class="st1" points="132,94.7 132,102.9 127.1,105.7 127.1,97.5 		"/>
		<polyline class="st1" points="114.4,104.9 114.4,114.4 109.8,111.8 		"/>
		<line class="st0" x1="109.8" y1="107.5" x2="109.8" y2="117.1"/>
		<line class="st0" x1="98.7" y1="113.9" x2="98.7" y2="123.5"/>
		<line class="st0" x1="87.6" y1="120.3" x2="87.6" y2="129.9"/>
		<polygon class="st0" points="52.1,102.6 85.2,121.8 85.2,117.7 52.1,98.5 		"/>
		<polygon class="st0" points="52.1,112.2 85.2,131.3 85.2,121.8 52.1,102.6 		"/>
		<line class="st1" x1="82.3" y1="120.1" x2="82.3" y2="129.7"/>
		<line class="st1" x1="70.8" y1="113.5" x2="70.8" y2="123"/>
		<line class="st1" x1="59.3" y1="106.8" x2="59.3" y2="116.4"/>
		<polyline class="st1" points="54.6,104.1 54.6,112.4 53.5,113 53.5,103.5 		"/>
		<line class="st1" x1="54.6" y1="112.4" x2="59.3" y2="115"/>
		<polyline class="st1" points="66.1,110.7 66.1,119 65,119.7 65,110.1 		"/>
		<line class="st1" x1="66.1" y1="119" x2="70.8" y2="121.6"/>
		<polyline class="st1" points="77.6,117.4 77.6,125.7 76.5,126.4 76.5,116.8 		"/>
		<line class="st1" x1="77.6" y1="125.7" x2="82.3" y2="128.3"/>
		<polyline class="st1" points="32.7,107.8 32.7,116.1 31.6,116.8 31.6,107.2 		"/>
		<line class="st1" x1="32.7" y1="116.1" x2="36.7" y2="118.3"/>
		<polyline class="st1" points="139.5,90.3 139.5,97.2 140.6,97.9 		"/>
		<line class="st1" x1="139.5" y1="97.2" x2="135.7" y2="99.4"/>
		<polyline class="st1" points="130.9,95.3 130.9,102.2 132,102.9 		"/>
		<line class="st1" x1="130.9" y1="102.2" x2="127.1" y2="104.5"/>
		<polyline class="st1" points="102.5,111.7 102.5,120 103.6,120.7 103.6,111.1 		"/>
		<line class="st1" x1="102.5" y1="120" x2="98.7" y2="122.2"/>
		<polyline class="st1" points="91.4,118.1 91.4,126.4 92.6,127.1 92.6,117.5 		"/>
		<line class="st1" x1="91.4" y1="126.4" x2="87.6" y2="128.6"/>
		<polyline class="st1" points="43.1,107.8 43.1,116.1 44.2,116.8 44.2,107.2 		"/>
		<line class="st1" x1="43.1" y1="116.1" x2="39.2" y2="118.3"/>
		<polyline class="st1" points="2.5,90.3 2.5,98.6 1.4,99.3 1.4,89.7 		"/>
		<polyline class="st1" points="6.4,96.4 2.5,98.6 6.4,100.9 		"/>
		<polyline class="st1" points="12.6,96.2 12.6,104.4 16.5,106.7 		"/>
		<polyline class="st1" points="12.6,104.4 11.5,105.1 11.5,95.5 		"/>
		<polyline class="st1" points="22.7,102 22.7,110.3 26.6,112.5 		"/>
		<polyline class="st1" points="22.7,110.3 21.6,110.9 21.6,101.4 		"/>
		<polygon class="st0" points="0.2,84.9 71,43.9 141.9,84.9 85.2,117.7 52.1,98.5 38,106.7 		"/>
		<path class="st2" d="M63.6,103.5"/>
		<path class="st2" d="M86.4,90.4"/>
	</g>
	<g>
		<polygon class="st3" points="0.2,85 25.1,70.6 49.4,84.6 52.6,82.7 66.1,90.5 38,106.8 		"/>
		<polygon class="st3" points="76.3,84.6 87.3,91 63.1,105 52.1,98.6 		"/>
		<polygon class="st3" points="109.4,103.8 85.2,117.8 63.1,105 87.3,91 		"/>
		<polygon class="st3" points="103.3,94.4 114.4,100.8 141.8,84.9 130.8,78.5 		"/>
		<polygon class="st3" points="108.8,65.7 130.8,78.5 103.3,94.4 81.3,81.7 		"/>
		<polygon class="st3" points="91.2,55.7 63.7,71.6 81.3,81.8 108.8,65.9 		"/>
		<polygon class="st3" points="71,44 43.5,59.9 63.7,71.6 91.2,55.7 		"/>
	</g>
</g>
<g id="og01">
	<polygon class="st0" points="0.2,78 0.2,73.9 37.9,95.8 37.9,99.9 	"/>
	<polygon class="st0" points="0.2,84.9 0.2,78 37.9,99.9 37.9,106.7 	"/>
	<line class="st1" x1="6.4" y1="81.6" x2="6.4" y2="88.5"/>
	<line class="st1" x1="16.5" y1="87.5" x2="16.5" y2="94.4"/>
	<line class="st1" x1="26.6" y1="93.3" x2="26.6" y2="100.2"/>
	<line class="st1" x1="36.7" y1="99.1" x2="36.7" y2="106"/>
	<polygon class="st0" points="37.9,99.9 37.9,95.8 52.1,87.6 52.1,91.7 	"/>
	<polygon class="st0" points="37.9,106.7 37.9,99.9 52.1,91.7 52.1,98.5 	"/>
	<line class="st1" x1="39.2" y1="106" x2="39.2" y2="99.1"/>
	<polygon class="st0" points="85.2,117.7 141.8,84.9 141.8,78 85.2,110.8 	"/>
	<polygon class="st0" points="85.2,106.7 85.2,110.8 141.8,78 141.8,73.9 	"/>
	<line class="st1" x1="87.6" y1="109.4" x2="87.6" y2="116.3"/>
	<line class="st1" x1="98.7" y1="103" x2="98.7" y2="109.8"/>
	<line class="st1" x1="109.8" y1="96.6" x2="109.8" y2="103.4"/>
	<line class="st1" x1="118.4" y1="91.6" x2="118.4" y2="98.4"/>
	<line class="st1" x1="127.1" y1="86.6" x2="127.1" y2="93.4"/>
	<line class="st1" x1="135.7" y1="81.6" x2="135.7" y2="88.4"/>
	<polygon class="st0" points="52.1,91.7 85.2,110.8 85.2,106.7 52.1,87.6 	"/>
	<polygon class="st0" points="85.2,117.7 52.1,98.5 52.1,91.7 85.2,110.8 	"/>
	<line class="st1" x1="59.3" y1="95.8" x2="59.3" y2="102.7"/>
	<line class="st1" x1="70.8" y1="102.5" x2="70.8" y2="109.4"/>
	<line class="st1" x1="82.3" y1="109.2" x2="82.3" y2="116"/>
	<polyline class="st1" points="54.6,93.2 54.6,98.7 53.5,99.4 53.5,92.5 	"/>
	<polyline class="st1" points="66.1,99.8 66.1,105.4 65,106 65,99.2 	"/>
	<polyline class="st1" points="77.6,106.5 77.6,112 76.5,112.7 76.5,105.9 	"/>
	<polyline class="st1" points="32.7,96.9 32.7,102.5 31.6,103.1 31.6,96.2 	"/>
	<polyline class="st1" points="139.5,79.4 139.5,84.9 140.6,85.6 140.6,78.7 	"/>
	<polyline class="st1" points="130.9,84.4 130.9,89.9 132,90.6 132,83.7 	"/>
	<polyline class="st1" points="122.2,89.4 122.2,94.9 123.4,95.6 123.4,88.7 	"/>
	<polyline class="st1" points="112.4,95.1 112.4,100.6 113.5,101.3 113.5,94.4 	"/>
	<polyline class="st1" points="102.5,100.8 102.5,106.3 103.6,107 103.6,100.1 	"/>
	<polyline class="st1" points="91.4,107.2 91.4,112.7 92.6,113.4 92.6,106.5 	"/>
	<polyline class="st1" points="43.1,96.9 43.1,102.5 44.2,103.1 44.2,96.2 	"/>
	<polyline class="st1" points="2.5,79.4 2.5,85 1.4,85.6 1.4,78.7 	"/>
	<polyline class="st1" points="6.4,82.7 2.5,85 6.4,87.2 	"/>
	<polyline class="st1" points="12.6,85.3 12.6,90.8 16.5,93 	"/>
	<polyline class="st1" points="12.6,90.8 11.5,91.4 11.5,84.6 	"/>
	<polyline class="st1" points="22.7,91.1 22.7,96.6 26.6,98.8 	"/>
	<polyline class="st1" points="22.7,96.6 21.6,97.2 21.6,90.4 	"/>
	<polygon class="st0" points="0.2,73.9 71,32.9 141.8,73.9 85.2,106.7 52.1,87.6 37.9,95.8 	"/>
	<line class="st1" x1="54.6" y1="98.7" x2="59.3" y2="101.4"/>
	<line class="st1" x1="66.1" y1="105.4" x2="70.8" y2="108"/>
	<line class="st1" x1="77.6" y1="112" x2="82.3" y2="114.7"/>
	<line class="st1" x1="32.7" y1="102.5" x2="36.7" y2="104.7"/>
	<line class="st1" x1="139.5" y1="84.9" x2="135.7" y2="87.1"/>
	<line class="st1" x1="130.9" y1="89.9" x2="127.1" y2="92.1"/>
	<line class="st1" x1="122.2" y1="94.9" x2="118.4" y2="97.1"/>
	<line class="st1" x1="112.4" y1="100.6" x2="109.8" y2="102.1"/>
	<line class="st1" x1="102.5" y1="106.3" x2="98.7" y2="108.5"/>
	<line class="st1" x1="91.4" y1="112.7" x2="87.6" y2="114.9"/>
	<line class="st1" x1="43.1" y1="102.5" x2="39.2" y2="104.7"/>
	<g>
		<polygon class="st3" points="0.2,73.9 35.6,53.4 54.5,64.3 19,84.9 		"/>
		<polygon class="st3" points="71,32.9 89.9,43.9 54.5,64.3 35.6,53.4 		"/>
		<polygon class="st3" points="47.1,68.6 66.1,79.5 37.9,95.8 19,84.9 		"/>
		<polygon class="st3" points="62.4,59.8 81.3,70.7 108.8,54.8 89.9,43.9 		"/>
		<polygon class="st3" points="108.8,54.8 119.8,61.2 92.3,77.1 81.3,70.7 		"/>
		<polygon class="st3" points="130.8,67.6 103.3,83.5 92.3,77.1 119.8,61.2 		"/>
		<polygon class="st3" points="141.8,73.9 114.4,89.9 103.3,83.5 130.8,67.6 		"/>
		<polygon class="st3" points="98.3,86.4 109.4,92.7 85.2,106.7 74.1,100.4 		"/>
		<polygon class="st3" points="63.1,94 87.3,80 98.3,86.4 74.1,100.4 		"/>
		<polygon class="st3" points="52.1,87.6 63.1,94 87.3,80 76.3,73.6 		"/>
	</g>
</g>
<g id="og02">
	<polygon class="st4" points="0.2,67.1 0.2,63 37.9,84.9 37.9,89 	"/>
	<polygon class="st4" points="0.2,73.9 0.2,67.1 37.9,89 37.9,95.8 	"/>
	<line class="st1" x1="36.7" y1="88.3" x2="36.7" y2="95.1"/>
	<line class="st1" x1="26.6" y1="82.4" x2="26.6" y2="89.3"/>
	<line class="st1" x1="16.5" y1="76.6" x2="16.5" y2="83.4"/>
	<line class="st1" x1="6.4" y1="70.8" x2="6.4" y2="77.6"/>
	<polygon class="st4" points="37.9,84.9 52.1,76.7 52.1,80.8 37.9,89 	"/>
	<polygon class="st4" points="37.9,95.8 37.9,89 52.1,80.8 52.1,87.6 	"/>
	<line class="st1" x1="39.2" y1="95.1" x2="39.2" y2="88.3"/>
	<polygon class="st4" points="85.2,95.8 85.2,99.9 141.8,67.1 141.8,63 	"/>
	<polygon class="st4" points="85.2,106.7 141.8,73.9 141.8,67.1 85.2,99.9 	"/>
	<line class="st1" x1="98.7" y1="92.1" x2="98.7" y2="98.9"/>
	<line class="st1" x1="109.8" y1="85.7" x2="109.8" y2="92.5"/>
	<line class="st4" x1="135.7" y1="70.7" x2="135.7" y2="77.5"/>
	<line class="st1" x1="127.1" y1="75.7" x2="127.1" y2="82.5"/>
	<line class="st1" x1="118.4" y1="80.7" x2="118.4" y2="87.5"/>
	<line class="st1" x1="87.6" y1="98.5" x2="87.6" y2="105.3"/>
	<polygon class="st4" points="52.1,76.7 85.2,95.8 85.2,99.9 52.1,80.8 	"/>
	<polygon class="st4" points="52.1,87.6 85.2,106.7 85.2,99.9 52.1,80.8 	"/>
	<line class="st1" x1="82.3" y1="98.2" x2="82.3" y2="105.1"/>
	<line class="st1" x1="70.8" y1="91.6" x2="70.8" y2="98.4"/>
	<line class="st1" x1="59.3" y1="84.9" x2="59.3" y2="91.8"/>
	<polyline class="st1" points="54.6,82.2 54.6,87.8 53.5,88.4 53.5,81.6 	"/>
	<polyline class="st1" points="66.1,88.9 66.1,94.4 65,95.1 65,88.2 	"/>
	<polyline class="st1" points="77.6,95.6 77.6,101.1 76.5,101.8 76.5,94.9 	"/>
	<polyline class="st1" points="32.7,86 32.7,91.5 31.6,92.2 31.6,85.3 	"/>
	<polyline class="st1" points="139.5,68.5 139.5,74 140.6,74.7 140.6,67.8 	"/>
	<polyline class="st1" points="130.9,73.5 130.9,79 132,79.7 132,72.8 	"/>
	<polyline class="st1" points="122.2,78.4 122.2,84 123.4,84.6 123.4,77.8 	"/>
	<polyline class="st1" points="112.4,84.2 112.4,89.7 113.5,90.4 113.5,83.5 	"/>
	<polyline class="st1" points="102.5,89.9 102.5,95.4 103.6,96.1 103.6,89.2 	"/>
	<polyline class="st1" points="91.4,96.3 91.4,101.8 92.6,102.5 92.6,95.6 	"/>
	<polyline class="st1" points="43.1,86 43.1,91.5 44.2,92.2 44.2,85.3 	"/>
	<polyline class="st1" points="2.5,68.5 2.5,74 1.4,74.7 1.4,67.8 	"/>
	<polyline class="st1" points="6.4,71.8 2.5,74 6.4,76.3 	"/>
	<polyline class="st1" points="12.6,74.3 12.6,79.9 16.5,82.1 	"/>
	<polyline class="st1" points="12.6,79.9 11.5,80.5 11.5,73.7 	"/>
	<polyline class="st1" points="22.7,80.2 22.7,85.7 26.6,87.9 	"/>
	<polyline class="st1" points="22.7,85.7 21.6,86.3 21.6,79.5 	"/>
	<polygon class="st4" points="0.2,63 71,22 141.8,63 85.2,95.8 52.1,76.7 37.9,84.9 	"/>
	<line class="st1" x1="54.6" y1="87.8" x2="59.3" y2="90.4"/>
	<line class="st1" x1="66.1" y1="94.4" x2="70.8" y2="97"/>
	<line class="st1" x1="77.6" y1="101.1" x2="82.3" y2="103.7"/>
	<line class="st1" x1="32.7" y1="91.5" x2="36.7" y2="93.8"/>
	<line class="st1" x1="139.5" y1="74" x2="135.7" y2="76.2"/>
	<line class="st1" x1="130.9" y1="79" x2="127.1" y2="81.2"/>
	<line class="st1" x1="122.2" y1="84" x2="118.4" y2="86.2"/>
	<line class="st1" x1="112.4" y1="89.7" x2="109.8" y2="91.2"/>
	<line class="st1" x1="102.5" y1="95.4" x2="98.7" y2="97.6"/>
	<line class="st1" x1="91.4" y1="101.8" x2="87.6" y2="104"/>
	<line class="st1" x1="43.1" y1="91.5" x2="39.2" y2="93.8"/>
	<g>
		<polygon class="st3" points="0.2,63 35.6,42.5 54.5,53.4 19,73.9 		"/>
		<polygon class="st3" points="71,22 89.9,32.9 54.5,53.4 35.6,42.5 		"/>
		<polygon class="st3" points="47.1,57.6 66.1,68.6 37.9,84.9 19,73.9 		"/>
		<polygon class="st3" points="62.4,48.8 81.3,59.8 108.8,43.9 89.9,32.9 		"/>
		<polygon class="st3" points="108.8,43.9 119.8,50.3 92.3,66.2 81.3,59.8 		"/>
		<polygon class="st3" points="130.8,56.6 103.3,72.5 92.3,66.2 119.8,50.3 		"/>
		<polygon class="st3" points="141.8,63 114.4,78.9 103.3,72.5 130.8,56.6 		"/>
		<polygon class="st3" points="98.3,75.4 109.4,81.8 85.2,95.8 74.1,89.4 		"/>
		<polygon class="st3" points="63.1,83.1 87.3,69.1 98.3,75.4 74.1,89.4 		"/>
		<polygon class="st3" points="52.1,76.7 63.1,83.1 87.3,69.1 76.3,62.7 		"/>
	</g>
</g>
<g id="og03">
	<polygon class="st0" points="54.5,75.3 107.5,44.6 138.4,62.3 85.2,93.1 	"/>
	<polygon class="st0" points="0.2,63 0.2,56.2 37.9,78 37.9,84.9 	"/>
	<line class="st1" x1="6.4" y1="59.8" x2="6.4" y2="66.7"/>
	<line class="st1" x1="16.5" y1="65.6" x2="16.5" y2="72.5"/>
	<line class="st1" x1="26.6" y1="71.5" x2="26.6" y2="78.3"/>
	<line class="st1" x1="36.7" y1="77.3" x2="36.7" y2="84.2"/>
	<polygon class="st0" points="37.9,78 37.9,84.9 108.8,43.9 108.8,37 	"/>
	<line class="st1" x1="39.2" y1="77.3" x2="39.2" y2="84.1"/>
	<line class="st1" x1="53.3" y1="69.1" x2="53.3" y2="76"/>
	<line class="st1" x1="76.7" y1="55.6" x2="76.7" y2="62.4"/>
	<line class="st1" x1="102.6" y1="40.6" x2="102.6" y2="47.5"/>
	<polygon class="st0" points="85.2,95.8 85.2,94.4 52.1,75.3 52.1,76.7 	"/>
	<polygon class="st0" points="52.1,75.3 53.3,74.7 85.2,93.1 85.2,94.4 	"/>
	<line class="st0" x1="54.5" y1="75.3" x2="86.3" y2="93.7"/>
	<polygon class="st0" points="85.2,93.1 139.5,61.6 141.9,61.6 85.2,94.4 	"/>
	<polygon class="st0" points="108.8,42.5 141.9,61.6 139.5,61.6 107.5,43.2 	"/>
	<polygon class="st0" points="107.5,43.2 107.5,44.6 138.4,62.3 139.5,61.6 	"/>
	<polyline class="st1" points="32.7,75 32.7,80.6 31.6,81.2 31.6,74.4 	"/>
	<line class="st1" x1="32.7" y1="80.6" x2="36.7" y2="82.8"/>
	<polyline class="st1" points="55.9,67.6 55.9,73.2 57,73.8 57,67 	"/>
	<line class="st1" x1="55.9" y1="73.2" x2="53.3" y2="74.7"/>
	<polyline class="st1" points="68.2,60.5 68.2,64.9 69.4,65.5 69.3,59.8 	"/>
	<line class="st1" x1="68.2" y1="64.9" x2="65.7" y2="66.4"/>
	<polyline class="st1" points="79.3,54.1 79.3,59.6 80.4,60.3 80.4,53.4 	"/>
	<line class="st1" x1="79.3" y1="59.6" x2="76.7" y2="61.1"/>
	<line class="st1" x1="106.4" y1="43.9" x2="102.6" y2="46.2"/>
	<polyline class="st1" points="43.1,75 43.1,80.6 44.2,81.2 44.2,74.4 	"/>
	<line class="st1" x1="43.1" y1="80.6" x2="39.2" y2="82.8"/>
	<polyline class="st1" points="2.5,57.5 2.5,63.1 1.4,63.7 1.4,56.9 	"/>
	<polyline class="st1" points="6.4,60.8 2.5,63.1 6.4,65.3 	"/>
	<polyline class="st1" points="12.6,63.4 12.6,68.9 16.5,71.2 	"/>
	<polyline class="st1" points="12.6,68.9 11.5,69.6 11.5,62.7 	"/>
	<polyline class="st1" points="22.7,69.2 22.7,74.8 26.6,77 	"/>
	<polyline class="st1" points="22.7,74.8 21.6,75.4 21.6,68.6 	"/>
	<line class="st1" x1="106.4" y1="42.5" x2="102.9" y2="40.5"/>
	<line class="st1" x1="106.4" y1="41.2" x2="104.1" y2="39.8"/>
	<polyline class="st1" points="102.6,41.7 106.4,43.9 106.4,38.4 	"/>
	<polyline class="st1" points="69.4,65.5 65.7,67.7 65.7,62 	"/>
	<line class="st1" x1="107.5" y1="44.6" x2="106.4" y2="43.9"/>
	<line class="st1" x1="107.5" y1="43.2" x2="107.5" y2="37.7"/>
	<polygon class="st0" points="0.2,56.2 0.2,52.1 37.9,73.9 37.9,78 	"/>
	<polygon class="st0" points="37.9,73.9 37.9,78 108.8,37 108.8,32.9 	"/>
	<polygon class="st0" points="0.2,52.1 71,11.1 108.8,32.9 37.9,73.9 	"/>
	<polyline class="st0" points="76.7,62.4 92.1,71.3 69.8,84.2 	"/>
	<polyline class="st0" points="85.2,57.5 100.6,66.4 123,53.4 	"/>
	<polygon class="st0" points="85.2,94.4 141.9,61.6 141.8,63 85.2,95.8 	"/>
	<path class="st1" d="M19,63"/>
	<path class="st1" d="M66.2,57.6"/>
	<path class="st1" d="M89.8,22"/>
	<g>
		<polygon class="st3" points="0.2,52.1 35.7,31.5 54.5,42.4 19,63 		"/>
		<polygon class="st3" points="71,11.1 89.8,22 54.5,42.4 35.7,31.5 		"/>
		<polygon class="st3" points="37.9,73.9 66.2,57.6 47.1,46.6 19,63 		"/>
		<polygon class="st3" points="81.4,48.8 108.8,32.9 89.8,22 62.4,37.8 		"/>
	</g>
</g>
<g id="og04">
	<polygon class="st0" points="0.2,41.1 0.2,45.2 37.9,67.1 37.9,63 	"/>
	<polygon class="st0" points="0.2,41.1 71,0.2 108.8,22 37.9,63 	"/>
	<polygon class="st0" points="37.9,67.1 108.8,26.1 108.8,22 37.9,63 	"/>
	<polygon class="st0" points="0.2,45.2 0.2,52.1 37.9,73.9 37.9,67.1 	"/>
	<line class="st1" x1="6.4" y1="48.9" x2="6.4" y2="55.7"/>
	<line class="st1" x1="16.5" y1="54.7" x2="16.5" y2="61.6"/>
	<line class="st1" x1="26.6" y1="60.6" x2="26.6" y2="67.4"/>
	<line class="st1" x1="36.7" y1="66.4" x2="36.7" y2="73.2"/>
	<polygon class="st0" points="37.9,73.9 108.8,32.9 108.8,26.1 37.9,67.1 	"/>
	<line class="st1" x1="39.2" y1="66.4" x2="39.2" y2="73.2"/>
	<line class="st0" x1="102.6" y1="29.7" x2="102.6" y2="36.5"/>
	<line class="st0" x1="53.3" y1="58.2" x2="53.3" y2="65.1"/>
	<line class="st0" x1="65.7" y1="51.1" x2="65.7" y2="57.9"/>
	<line class="st0" x1="76.7" y1="44.7" x2="76.7" y2="51.5"/>
	<polyline class="st1" points="2.5,46.6 2.5,52.2 1.4,52.8 1.4,46 	"/>
	<polyline class="st1" points="6.4,49.9 2.5,52.2 6.4,54.4 	"/>
	<polyline class="st1" points="32.7,64.1 32.7,69.7 31.6,70.3 31.6,63.5 	"/>
	<line class="st1" x1="32.7" y1="69.7" x2="36.7" y2="71.9"/>
	<polyline class="st1" points="43.1,64.1 43.1,69.7 44.2,70.3 44.2,63.5 	"/>
	<line class="st1" x1="43.1" y1="69.7" x2="39.2" y2="71.9"/>
	<polyline class="st1" points="55.9,56.7 55.9,62.3 57,62.9 57,56.1 	"/>
	<line class="st1" x1="55.9" y1="62.3" x2="53.3" y2="63.8"/>
	<polyline class="st1" points="68.2,49.6 68.2,55.1 69.4,55.8 69.3,48.9 	"/>
	<line class="st1" x1="68.2" y1="55.1" x2="65.7" y2="56.6"/>
	<polyline class="st1" points="79.3,43.2 79.3,48.7 80.4,49.4 80.4,42.5 	"/>
	<line class="st1" x1="79.3" y1="48.7" x2="76.7" y2="50.2"/>
	<polyline class="st1" points="106.4,27.5 106.4,33 107.5,33.7 107.5,26.8 	"/>
	<line class="st1" x1="106.4" y1="33" x2="102.6" y2="35.2"/>
	<polyline class="st1" points="12.6,52.5 12.6,58 16.5,60.2 	"/>
	<polyline class="st1" points="12.6,58 11.5,58.6 11.5,51.8 	"/>
	<polyline class="st1" points="22.7,58.3 22.7,63.8 26.6,66.1 	"/>
	<polyline class="st1" points="22.7,63.8 21.6,64.5 21.6,57.6 	"/>
	<line class="st1" x1="37.9" y1="73.9" x2="107.5" y2="33.7"/>
	<line class="st1" x1="106.4" y1="31.6" x2="102.9" y2="29.5"/>
	<line class="st1" x1="106.4" y1="33" x2="102.6" y2="30.8"/>
	<polygon class="st1" points="71,1.5 106.4,22 37.9,61.6 2.5,41.1 	"/>
	<line class="st1" x1="71" y1="2.9" x2="3.7" y2="41.8"/>
	<polyline class="st1" points="71,1.5 71,2.9 105.2,22.7 	"/>
	<g>
		<polygon class="st1" points="37.9,22 54.5,31.5 20.3,51.4 3.7,41.8 		"/>
		<polygon class="st1" points="47.2,35.8 64.9,46 37.9,61.6 20.3,51.4 		"/>
		<polygon class="st1" points="62.4,27 80.1,37.2 105.2,22.7 87.5,12.5 		"/>
		<polygon class="st1" points="71,2.9 37.9,22 54.5,31.5 87.5,12.5 		"/>
	</g>
</g>
</svg>
