<?xml version="1.0" encoding="utf-8"?>
<!-- Generator: Adobe Illustrator 25.4.1, SVG Export Plug-In . SVG Version: 6.00 Build 0)  -->
<svg version="1.1" id="Ebene_1" xmlns="http://www.w3.org/2000/svg" xmlns:xlink="http://www.w3.org/1999/xlink" x="0px" y="0px"
	 viewBox="0 0 271.68 81.27" style="enable-background:new 0 0 271.68 81.27;" xml:space="preserve">
<style type="text/css">
	.st0{fill:#FFFFFF;}
</style>
<g>
	<g>
		<path class="st0" d="M159,32.79c-2.2,0-4.18-0.37-5.94-1.11c-1.76-0.74-3.21-1.78-4.35-3.14c-1.15-1.36-1.89-2.97-2.24-4.83
			l3.28-0.55c0.52,2.04,1.63,3.64,3.33,4.8c1.69,1.16,3.71,1.74,6.06,1.74c1.55,0,2.93-0.24,4.16-0.73
			c1.23-0.49,2.19-1.18,2.89-2.09s1.05-1.98,1.05-3.22c0-0.82-0.15-1.51-0.44-2.09c-0.29-0.58-0.68-1.05-1.16-1.43
			s-1.01-0.7-1.58-0.95c-0.57-0.26-1.12-0.46-1.66-0.62l-7.98-2.38c-0.96-0.28-1.85-0.63-2.67-1.06s-1.53-0.95-2.13-1.55
			c-0.61-0.61-1.08-1.32-1.41-2.13c-0.33-0.82-0.5-1.75-0.5-2.8c0-1.78,0.47-3.32,1.4-4.62s2.21-2.3,3.83-3s3.46-1.04,5.53-1.03
			c2.1,0,3.98,0.37,5.63,1.12s3.02,1.8,4.1,3.18s1.79,3.01,2.14,4.89l-3.37,0.61c-0.22-1.37-0.72-2.56-1.51-3.57
			s-1.79-1.78-3.01-2.33s-2.56-0.83-4.01-0.84c-1.42,0-2.67,0.24-3.77,0.71s-1.97,1.12-2.61,1.94s-0.96,1.75-0.96,2.8
			c0,1.06,0.3,1.92,0.89,2.56s1.32,1.14,2.19,1.51s1.71,0.66,2.53,0.9l6.17,1.82c0.64,0.17,1.4,0.43,2.26,0.75
			c0.87,0.33,1.71,0.79,2.54,1.4s1.51,1.4,2.05,2.37c0.54,0.98,0.81,2.22,0.81,3.72c0,1.46-0.29,2.76-0.86,3.92
			c-0.58,1.15-1.39,2.12-2.43,2.91s-2.26,1.39-3.65,1.8C162.17,32.58,160.65,32.79,159,32.79z"/>
		<path class="st0" d="M187.52,32.14V3.72h-11V0.64h25.22v3.08h-11v28.42H187.52z"/>
		<path class="st0" d="M210.1,32.14V0.64h19.69v3.08h-16.47v10.89h13.85v3.08h-13.85v11.35h16.47v3.08H210.1V32.14z"/>
		<path class="st0" d="M239.19,32.14V0.64h12.16c0.31,0,0.65,0.01,1.04,0.03s0.78,0.07,1.17,0.14c1.65,0.25,3.04,0.82,4.19,1.72
			s2.01,2.02,2.6,3.38s0.89,2.86,0.89,4.51c0,1.63-0.3,3.13-0.9,4.48c-0.6,1.36-1.47,2.48-2.61,3.38c-1.14,0.9-2.53,1.47-4.17,1.72
			c-0.39,0.06-0.78,0.1-1.17,0.13c-0.39,0.03-0.73,0.04-1.04,0.04h-8.95v11.97H239.19z M242.41,17.11h8.86
			c0.26,0,0.57-0.01,0.92-0.04c0.35-0.03,0.69-0.08,1.03-0.15c1.08-0.23,1.97-0.68,2.66-1.34s1.21-1.44,1.55-2.34
			s0.51-1.85,0.51-2.82s-0.17-1.92-0.51-2.83s-0.86-1.7-1.55-2.35c-0.69-0.66-1.58-1.1-2.66-1.33c-0.33-0.07-0.68-0.12-1.03-0.14
			c-0.35-0.02-0.66-0.03-0.92-0.03h-8.86L242.41,17.11L242.41,17.11z"/>
	</g>
	<g>
		<g>
			<path class="st0" d="M160.82,81.27c-3.14,0-5.78-0.7-7.94-2.09s-3.79-3.32-4.9-5.79s-1.66-5.31-1.66-8.53s0.55-6.07,1.66-8.53
				s2.74-4.39,4.9-5.79s4.8-2.09,7.94-2.09c3.66,0,6.65,0.94,8.97,2.81c2.32,1.87,3.91,4.39,4.77,7.54l-3.28,0.85
				c-0.67-2.49-1.87-4.47-3.61-5.93s-4.02-2.19-6.85-2.19c-2.46,0-4.51,0.56-6.15,1.68c-1.63,1.12-2.86,2.69-3.69,4.69
				c-0.82,2-1.25,4.32-1.28,6.95c-0.01,2.62,0.39,4.94,1.21,6.93s2.06,3.56,3.72,4.69c1.66,1.13,3.71,1.7,6.18,1.7
				c2.83,0,5.11-0.73,6.85-2.2c1.74-1.46,2.94-3.44,3.61-5.92l3.28,0.85c-0.86,3.15-2.45,5.66-4.77,7.54
				C167.47,80.33,164.48,81.27,160.82,81.27z"/>
			<path class="st0" d="M196.25,81.27c-2.41,0-4.53-0.5-6.38-1.49c-1.84-0.99-3.29-2.39-4.34-4.2s-1.58-3.92-1.58-6.34v-20.1
				l3.24-0.02v19.71c0,1.63,0.28,3.04,0.83,4.23s1.28,2.17,2.18,2.93c0.9,0.77,1.88,1.33,2.94,1.7c1.06,0.37,2.1,0.55,3.11,0.55
				c1.02,0,2.06-0.18,3.13-0.55c1.06-0.36,2.04-0.93,2.93-1.7s1.61-1.74,2.17-2.93c0.55-1.19,0.83-2.6,0.83-4.23V49.11h3.24v20.13
				c0,2.42-0.53,4.53-1.58,6.33s-2.5,3.2-4.34,4.2C200.78,80.77,198.66,81.27,196.25,81.27z"/>
			<path class="st0" d="M219.75,80.61v-31.5h12.16c1.76,0,3.3,0.36,4.62,1.09s2.33,1.71,3.06,2.94s1.09,2.59,1.09,4.08
				c0,1.69-0.45,3.2-1.36,4.52c-0.9,1.32-2.11,2.24-3.63,2.75l-0.04-1.07c2.04,0.58,3.65,1.6,4.81,3.06
				c1.17,1.46,1.75,3.22,1.75,5.29c0,1.82-0.39,3.39-1.16,4.71s-1.86,2.34-3.26,3.05c-1.4,0.71-3.03,1.07-4.88,1.07L219.75,80.61
				L219.75,80.61z M222.98,62.54h8.9c1.01,0,1.92-0.23,2.76-0.69c0.83-0.46,1.49-1.09,1.98-1.89c0.49-0.8,0.73-1.73,0.73-2.78
				c0-1.49-0.51-2.7-1.54-3.63s-2.34-1.4-3.93-1.4h-8.9V62.54z M222.98,77.52h9.14c1.28,0,2.44-0.23,3.46-0.69s1.83-1.11,2.42-1.96
				s0.89-1.87,0.89-3.06c0-1.17-0.27-2.22-0.81-3.15s-1.27-1.68-2.2-2.24s-1.98-0.84-3.16-0.84h-9.73v11.94
				C222.99,77.52,222.98,77.52,222.98,77.52z"/>
			<path class="st0" d="M251.99,80.61v-31.5h19.69v3.08h-16.47v10.89h13.85v3.08h-13.85v11.35h16.47v3.08h-19.69L251.99,80.61
				L251.99,80.61z"/>
		</g>
	</g>
	<g>
		<polygon class="st0" points="0,76.62 0,80.61 120,80.61 120,70.17 12.53,70.17 		"/>
		<polygon class="st0" points="21.14,57.61 0,57.61 0,68.05 4.06,68.05 16.59,61.61 120,61.61 120,51.17 33.67,51.17 		"/>
		<polygon class="st0" points="42.29,38.61 0,38.61 0,49.05 25.2,49.05 37.73,42.6 120,42.6 120,32.17 54.81,32.17 		"/>
		<polygon class="st0" points="63.43,19.61 0,19.61 0,30.05 46.35,30.05 58.87,23.6 80,23.6 80,13.16 75.95,13.16 		"/>
		<polygon class="st0" points="80,4.61 80,0.61 0,0.61 0,11.05 67.49,11.05 		"/>
	</g>
</g>
</svg>
