<?xml version="1.0" encoding="utf-8"?>
<!-- Generator: Adobe Illustrator 25.4.1, SVG Export Plug-In . SVG Version: 6.00 Build 0)  -->
<svg version="1.1" id="Ebene_1" xmlns="http://www.w3.org/2000/svg" xmlns:xlink="http://www.w3.org/1999/xlink" x="0px" y="0px"
	 viewBox="0 0 120 80" style="enable-background:new 0 0 120 80;" xml:space="preserve">
<style type="text/css">
	.st0{fill:#223870;}
</style>
<g>
	<g>
		<polygon class="st0" points="0,75.35 0,79.34 0,79.34 0,68.9 0,68.9 		"/>
		<polygon class="st0" points="0,56.34 0,56.34 0,66.78 0,66.78 0,60.34 0,60.34 0,49.9 0,49.9 		"/>
		<polygon class="st0" points="0,37.34 0,37.34 0,47.78 0,47.78 0,41.33 0,41.33 0,30.9 0,30.9 		"/>
		<polygon class="st0" points="0,18.34 0,18.34 0,28.78 0,28.78 0,22.33 0,22.33 0,11.89 0,11.89 		"/>
		<polygon class="st0" points="0,3.34 0,-0.66 0,-0.66 0,9.78 0,9.78 		"/>
	</g>
</g>
</svg>
