<?xml version="1.0" encoding="utf-8"?>
<!-- Generator: Adobe Illustrator 25.4.1, SVG Export Plug-In . SVG Version: 6.00 Build 0)  -->
<svg version="1.1" id="Ebene_1" xmlns="http://www.w3.org/2000/svg" xmlns:xlink="http://www.w3.org/1999/xlink" x="0px" y="0px"
	 viewBox="0 0 120 80" style="enable-background:new 0 0 120 80;" xml:space="preserve">
<style type="text/css">
	.st0{fill:#223870;}
</style>
<g>
	<g>
		<polygon class="st0" points="0,76.01 0,80 120,80 120,69.56 12.53,69.56 		"/>
		<polygon class="st0" points="17.14,57 0,57 0,67.44 0.06,67.44 12.59,61 120,61 120,50.56 29.67,50.56 		"/>
		<polygon class="st0" points="34.29,38 0,38 0,48.44 17.2,48.44 29.73,41.99 120,41.99 120,31.56 46.81,31.56 		"/>
		<polygon class="st0" points="51.43,19 0,19 0,29.44 34.35,29.44 46.87,22.99 80,22.99 80,12.55 63.95,12.55 		"/>
		<polygon class="st0" points="64,4 80,4 80,0 0,0 0,10.44 51.49,10.44 		"/>
	</g>
</g>
</svg>
