<?xml version="1.0" encoding="utf-8"?>
<!-- Generator: Adobe Illustrator 22.0.0, SVG Export Plug-In . SVG Version: 6.00 Build 0)  -->
<svg version="1.1" id="Layer_1" xmlns="http://www.w3.org/2000/svg" xmlns:xlink="http://www.w3.org/1999/xlink" x="0px" y="0px"
	 viewBox="0 0 120 80" style="enable-background:new 0 0 120 80;" xml:space="preserve">
<style type="text/css">
	.st0{fill:#FFFFFF;}
</style>
<g>
	<polygon class="st0" points="0,0 80,0 80,0 	"/>
	<polygon class="st0" points="0,76 0,76 0,80 120,80 120,69.6 12.5,69.6 	"/>
	<polygon class="st0" points="21.1,57 0,57 0,67.4 4,67.4 16.6,61 120,61 120,50.6 33.6,50.6 	"/>
	<polygon class="st0" points="42.2,38 0,38 0,48.4 25.1,48.4 37.7,42 120,42 120,31.6 54.7,31.6 	"/>
	<polygon class="st0" points="63.3,19 0,19 0,29.4 46.2,29.4 58.8,23 80,23 80,12.6 75.8,12.6 	"/>
	<polygon class="st0" points="79.9,4 80,4 80,0 0,0 0,10.4 67.3,10.4 	"/>
</g>
</svg>
