<?xml version="1.0" encoding="utf-8"?>
<!-- Generator: Adobe Illustrator 25.4.1, SVG Export Plug-In . SVG Version: 6.00 Build 0)  -->
<svg version="1.1" id="Ebene_1" xmlns="http://www.w3.org/2000/svg" xmlns:xlink="http://www.w3.org/1999/xlink" x="0px" y="0px"
	 viewBox="0 0 100 32.04" style="enable-background:new 0 0 100 32.04;" xml:space="preserve">
<style type="text/css">
	.st0{fill:#FFFFFF;}
</style>
<g>
	<path class="st0" d="M97.54,16.76h-0.08v0.7c0.44-0.02,0.51-0.12,0.51-0.39C97.97,16.8,97.88,16.76,97.54,16.76 M97.97,18.8
		l-0.1-0.42c-0.05-0.23-0.13-0.45-0.25-0.54l-0.16,0.01v0.94h-0.58v-2.47h0.68c0.49,0,1,0.08,1,0.74c0,0.35-0.19,0.53-0.43,0.63
		c0.15,0.12,0.24,0.32,0.32,0.55l0.19,0.55H97.97z M97.66,15.78c-0.98,0-1.7,0.66-1.7,1.82c0,1.15,0.73,1.82,1.7,1.82
		c0.98,0,1.71-0.67,1.71-1.82C99.37,16.46,98.64,15.78,97.66,15.78 M97.66,20.02c-1.33,0-2.34-0.86-2.34-2.41
		c0-1.51,1.01-2.41,2.34-2.41c1.33,0,2.34,0.91,2.34,2.41C100,19.13,98.99,20.02,97.66,20.02"/>
	<path class="st0" d="M17.85,17.62c-0.86,0-1.93,0.68-1.93,0.68v6.82c0,0,1.13,0.32,1.9,0.32c1.04,0,2.18-0.29,2.18-4.01
		C20,17.68,19.16,17.62,17.85,17.62 M17.96,27.73c-0.97,0-2.04-0.36-2.04-0.36v4.44h-3.17V15.48h2.43l0.57,1.04
		c0,0,1.09-1.27,2.79-1.27c1.97,0,4.65,0.45,4.65,6.17C23.18,27.21,19.87,27.73,17.96,27.73"/>
	<path class="st0" d="M29.14,18.18c-0.7,0-1.54,0.43-1.54,0.43v8.89h-3.17V15.49h2.54l0.41,1.2c0,0,0.77-1.43,2.25-1.43
		c0.77,0,1.34,0.14,1.34,0.14v3.02C30.95,18.41,29.82,18.18,29.14,18.18"/>
	<path class="st0" d="M36.49,17.5c-1.25,0-2.31,0.41-2.31,3.99c0,3.54,1.29,3.97,2.31,3.97c1.02,0,2.31-0.41,2.31-3.97
		C38.8,17.77,37.74,17.5,36.49,17.5 M36.49,27.73c-2.43,0-5.49-0.86-5.49-6.23c0-5.24,2.97-6.24,5.49-6.24
		c2.49,0,5.49,0.84,5.49,6.24C41.98,26.94,38.89,27.73,36.49,27.73"/>
	<path class="st0" d="M48.38,17.62c-0.86,0-1.93,0.68-1.93,0.68v6.82c0,0,1.13,0.32,1.91,0.32c1.04,0,2.18-0.29,2.18-4.01
		C50.53,17.68,49.69,17.62,48.38,17.62 M48.49,27.73c-0.97,0-2.04-0.36-2.04-0.36v4.44h-3.17V15.48h2.43l0.57,1.04
		c0,0,1.09-1.27,2.79-1.27c1.97,0,4.65,0.45,4.65,6.17C53.71,27.21,50.39,27.73,48.49,27.73"/>
	<path class="st0" d="M59.68,17.32c-1.36,0-1.91,0.82-1.95,3.22h3.72C61.4,17.96,60.84,17.32,59.68,17.32 M64.53,22.54h-6.8
		c0.07,2.36,1.41,2.68,2.4,2.68c1.61,0,3.67-0.61,3.67-0.61v2.52c0,0-1.72,0.61-3.67,0.61c-2.49,0-5.56-0.66-5.56-6.23
		c0-5.06,2.68-6.24,5.1-6.24c2.27,0,4.99,1.09,4.87,6.24L64.53,22.54z"/>
	<path class="st0" d="M70.5,18.18c-0.7,0-1.54,0.43-1.54,0.43v8.89h-3.17V15.49h2.54l0.41,1.2c0,0,0.77-1.43,2.24-1.43
		c0.77,0,1.34,0.14,1.34,0.14v3.02C72.32,18.41,71.18,18.18,70.5,18.18"/>
	<path class="st0" d="M78.34,27.73c-1.63,0-3.29-0.41-3.29-3.24v-6.87h-2.04v-2.13h2.04l0.23-2.65l2.95-0.97v3.63h2.72l-0.32,2.13
		h-2.4v6.82c0,0.68,0.36,0.77,0.77,0.77c0.52,0,2.18-0.41,2.18-0.41v2.4C81.18,27.21,79.82,27.73,78.34,27.73"/>
	<path class="st0" d="M5.31,1.95c-1.22,0-1.9,0.7-1.9,2.2c0,1.59,0.66,2.2,1.9,2.2c1.25,0,1.9-0.61,1.9-2.2
		C7.21,2.59,6.48,1.95,5.31,1.95 M6.28,12.11l-3.06-0.18c-0.2,0.36-0.36,0.73-0.36,1.2c0,1.11,0.73,1.54,2.18,1.54
		c2.2,0,3.24-0.34,3.24-1.56C8.28,12.24,7.89,12.2,6.28,12.11 M9.41,2.45c0,0,0.77,0.52,0.77,1.81c0,3.04-2.16,4.06-4.88,4.06
		c-0.73,0-1.43-0.11-1.93-0.25c-0.32,0.2-0.54,0.5-0.54,0.79c0,0.52,0.41,0.59,1.09,0.63l3.49,0.2c2.22,0.14,3.74,0.63,3.74,3.22
		c0,3.06-2.13,3.85-6.12,3.85C1.82,16.78,0,15.92,0,13.67c0-1.31,1-2.06,1.34-2.29c-0.52-0.36-0.89-0.93-0.89-1.75
		c0-1.11,0.73-1.77,1.47-2.24C1.02,6.73,0.41,5.71,0.41,4.17C0.41,1.07,2.61,0,5.31,0c1.11,0,1.41,0.23,1.97,0.23h4.13v2.22H9.41z"
		/>
	<path class="st0" d="M17.48,2.93c-0.7,0-1.54,0.43-1.54,0.43v8.89h-3.17V0.23h2.54l0.41,1.2c0,0,0.77-1.43,2.24-1.43
		c0.77,0,1.34,0.14,1.34,0.14v3.02C19.3,3.15,18.16,2.93,17.48,2.93"/>
	<path class="st0" d="M25.1,2.06c-1.36,0-1.9,0.82-1.95,3.22h3.72C26.82,2.7,26.25,2.06,25.1,2.06 M29.95,7.28h-6.8
		c0.07,2.36,1.41,2.68,2.4,2.68c1.61,0,3.67-0.61,3.67-0.61v2.52c0,0-1.72,0.61-3.67,0.61c-2.49,0-5.56-0.66-5.56-6.24
		c0-5.06,2.68-6.24,5.1-6.24c2.27,0,4.99,1.09,4.87,6.24L29.95,7.28z"/>
	<path class="st0" d="M36.64,2.06c-1.36,0-1.91,0.82-1.95,3.22h3.72C38.37,2.7,37.8,2.06,36.64,2.06 M41.49,7.28h-6.8
		c0.07,2.36,1.41,2.68,2.4,2.68c1.61,0,3.67-0.61,3.67-0.61v2.52c0,0-1.72,0.61-3.67,0.61c-2.49,0-5.56-0.66-5.56-6.24
		c0-5.06,2.68-6.24,5.1-6.24c2.27,0,4.99,1.09,4.87,6.24L41.49,7.28z"/>
	<path class="st0" d="M50.55,12.24V3.76c0-0.86-0.34-1.13-1.36-1.13c-1.36,0-2.72,0.86-2.72,0.86v8.75H43.3V0.23h2.65l0.45,1.29
		c0,0,1.79-1.52,3.99-1.52c1.99,0,3.33,0.88,3.33,3.58v8.66H50.55z"/>
	<path class="st0" d="M88.98,20.68c1.09,2.62,1.43,5.65-0.59,8.36l-0.02-0.05c4.07-7.61-6.41-14.33-6.41-14.33
		c-0.6,2.01,0.51,6.69,2.72,10.37c0.09,0.19,0.18,0.39,0.29,0.62c2.67,5.42-2.57,6.31-2.57,6.31l0.4,0c0.86,0.13,6.64,0.76,9.46-4.7
		c2.24-4.34,0.43-9.36,2.22-12.71C91.67,15.83,89.93,17.75,88.98,20.68"/>
</g>
</svg>
