<?xml version="1.0" encoding="utf-8"?>
<!-- Generator: Adobe Illustrator 25.4.1, SVG Export Plug-In . SVG Version: 6.00 Build 0)  -->
<svg version="1.1" id="Ebene_1" xmlns="http://www.w3.org/2000/svg" xmlns:xlink="http://www.w3.org/1999/xlink" x="0px" y="0px"
	 viewBox="0 0 146.6 25.6" style="enable-background:new 0 0 146.6 25.6;" xml:space="preserve">
<style type="text/css">
	.st0{fill:#FFFFFF;}
</style>
<g>
	<path class="st0" d="M125.6,23.2V2.3h5.1c4.4,0,6.5,1.7,6.5,6.2c0,4.5-2.1,6.2-6.5,6.2h-1.6v8.6H125.6z M129.2,11.7h1.4
		c2.3,0,3.1-0.7,3.1-3.2s-0.7-3.2-3.1-3.2h-1.4V11.7z"/>
	<rect x="115.8" y="11.5" class="st0" width="5.9" height="3.1"/>
	<polygon class="st0" points="14.6,2.3 14.6,23.2 11.4,23.2 11.4,6.9 11.4,6.9 8.2,23.2 6.4,23.2 3.2,6.9 3.1,6.9 3.1,23.2 0,23.2 
		0,2.3 4.7,2.3 7.3,14.5 7.3,14.5 9.9,2.3 	"/>
	<rect x="18.4" y="2.3" class="st0" width="3.6" height="20.9"/>
	<polygon class="st0" points="25.9,23.2 25.9,2.3 29.2,2.3 33.6,14.2 33.6,14.2 33.6,2.3 36.9,2.3 36.9,23.2 33.8,23.2 29.2,10.1 
		29.1,10.1 29.1,23.2 	"/>
	<polygon class="st0" points="40.3,23.2 40.3,2.3 49.9,2.3 49.9,5.4 43.9,5.4 43.9,10.8 48.6,10.8 48.6,13.9 43.9,13.9 43.9,20 
		50.3,20 50.3,23.2 	"/>
	<path class="st0" d="M56.8,23.2h-3.6V2.3h5c4,0,6.1,1.7,6.1,6.2c0,3.4-1.3,4.7-2.5,5.3l3,9.5h-3.6l-2.5-8.6
		c-0.5,0.1-1.2,0.1-1.8,0.1V23.2z M56.8,11.7H58c1.9,0,2.7-0.7,2.7-3.2C60.7,6,60,5.2,58,5.2h-1.3V11.7z"/>
	<rect x="95.4" y="2.3" class="st0" width="3.6" height="20.9"/>
	<polygon class="st0" points="103,23.2 103,2.3 112.6,2.3 112.6,5.4 106.6,5.4 106.6,10.8 111.2,10.8 111.2,13.9 106.6,13.9 
		106.6,20 113,20 113,23.2 	"/>
	<path class="st0" d="M90.5,9.8c-3.8,1.8-11.6,3.5-11.5,3.4l-0.8,1.7c-0.5,2.3,2.2,1.7,3.6,1.5c1.5-0.2,2.9-0.5,4.4-0.9
		c-3.6,4-10,6.5-14.8,2.8C68.7,9.7,78.3,3.4,85.9,3c0,0,0.2-0.1,0.5-0.3l1,1.5c0.4-0.3,0.9-0.5,1.3-0.8l-0.3-2.8
		c-8-2.6-16.9,2.5-20.5,9.9c-1.4,2.7-1.7,6-0.2,8.6c4.2,7.7,14.5,5.2,20.3,0.4c-0.2,1.7-0.4,3.4-0.6,5.1l3.4,0.8
		c1.3-3,0.9-6.2,1.7-9.3L90.5,9.8z"/>
	<path class="st0" d="M139.3,5.5c0-2.2,1.7-3.5,3.6-3.5c1.9,0,3.6,1.4,3.6,3.5c0,2.2-1.7,3.5-3.6,3.5C141,9.1,139.3,7.7,139.3,5.5
		 M142.9,2.7c-1.5,0-2.7,1.2-2.7,2.8c0,1.6,1.2,2.8,2.7,2.8c1.5,0,2.7-1.2,2.7-2.8C145.6,3.9,144.4,2.7,142.9,2.7 M142.3,7.5h-0.8
		v-4h1.5c1,0,1.5,0.3,1.5,1.2c0,0.7-0.4,1-1,1.1l1,1.7h-0.9l-0.9-1.7h-0.5V7.5z M142.3,5.2h0.7c0.6,0,0.8-0.2,0.8-0.6
		c0-0.4-0.2-0.5-0.8-0.5h-0.6V5.2z"/>
</g>
</svg>
